<svg xmlns="http://www.w3.org/2000/svg" width="544" height="582.66" viewBox="0 0 544 582.66"><g id="Ebene_5" data-name="Ebene 5"><rect width="544" height="582.66" fill="#f1f4b8"/></g><g id="Ebene_7" data-name="Ebene 7"><polyline points="524.87 373.81 239.98 373.81 239.98 562.7" fill="none" stroke="#fffff8" stroke-miterlimit="10" stroke-width="2"/><polyline points="202.83 244.86 202.83 373.81 366.35 373.81 366.35 140.7 20 140.7" fill="none" stroke="#fffff8" stroke-miterlimit="10" stroke-width="2"/><line x1="163.53" y1="373.8" x2="19.94" y2="373.8" fill="none" stroke="#fffff8" stroke-miterlimit="10" stroke-width="2"/><line x1="524.02" y1="140.7" x2="390.43" y2="140.7" fill="none" stroke="#fffff8" stroke-miterlimit="10" stroke-width="2"/><line x1="331.1" y1="20.21" x2="331.1" y2="121.8" fill="none" stroke="#fffff8" stroke-miterlimit="10" stroke-width="2"/><rect width="331.91" height="141.66" fill="#fffff8" opacity="0.5"/></g><g id="Ebene_2" data-name="Ebene 2"><path d="M453.81,244.86a18.41,18.41,0,0,0,6-1l-5.84-18.8-7.67,18.19A18.39,18.39,0,0,0,453.81,244.86Z" fill="none" stroke="#ff4848" stroke-miterlimit="10" stroke-width="2"/><path d="M435.91,311a18.64,18.64,0,0,0-11-17l-7.23,17.14,17.89,3.58A18.17,18.17,0,0,0,435.91,311Z" fill="none" stroke="#ff4848" stroke-miterlimit="10" stroke-width="2"/><path d="M484.86,324.57l-5.95-19.15a18.66,18.66,0,0,0-13.57,15.24Z" fill="none" stroke="#ff4848" stroke-miterlimit="10" stroke-width="2"/><polygon points="417.64 311.12 453.94 225.07 484.87 324.57 417.64 311.12" fill="none" stroke="#333" stroke-miterlimit="10" stroke-width="2"/><path d="M91.24,294.28l12-12.45a16.32,16.32,0,0,0-24.06,1.36Z" fill="none" stroke="#ff4848" stroke-miterlimit="10" stroke-width="2"/><polygon points="45.38 252.25 156.18 226.78 91.23 294.27 45.38 252.25" fill="none" stroke="#333" stroke-miterlimit="10" stroke-width="2"/><path d="M139.44,230.59a16.29,16.29,0,0,0,4.75,8.5L156,226.78Z" fill="none" stroke="#333" stroke-miterlimit="10" stroke-width="2"/><path d="M57.47,263.26a16.26,16.26,0,0,0,3.88-14.69l-15.92,3.66Z" fill="none" stroke="#333" stroke-miterlimit="10" stroke-width="2"/><path d="M376.4,106.81a20.12,20.12,0,0,0-4.88-12.33" fill="none" stroke="#333" stroke-miterlimit="10" stroke-width="2"/><path d="M385.16,83.35a14.29,14.29,0,0,0,22.77-5.24" fill="none" stroke="#333" stroke-miterlimit="10" stroke-width="2"/><path d="M489.56,94a21.69,21.69,0,0,0-.81,5.85c0,.74,0,1.47.11,2.2" fill="none" stroke="#333" stroke-miterlimit="10" stroke-width="2"/><polygon points="356.11 108.62 354.84 107.06 394.55 74.66 395.21 76.68 356.11 108.62" fill="#ff4848"/><polygon points="356.11 108.62 354.84 107.06 523.56 99.83 523.12 102.09 356.11 108.62" fill="#111daa"/><polygon points="523.12 102.09 394.82 76.93 394.55 74.66 523.56 99.83 523.12 102.09" fill="#1db20d"/></g><g id="Ebene_3" data-name="Ebene 3"><path d="M46.28,179.32a5.89,5.89,0,0,1,1.64.9l-.78,1.16a6,6,0,0,0-1.37-.68,4.18,4.18,0,0,0-1.37-.22,2.37,2.37,0,0,0-1.42.37,1.16,1.16,0,0,0-.52,1,1.17,1.17,0,0,0,.49,1,5.63,5.63,0,0,0,1.77.7,6.26,6.26,0,0,1,2.63,1.2,2.61,2.61,0,0,1,.87,2.08A2.72,2.72,0,0,1,47,189.22a5.19,5.19,0,0,1-2.95.82,5.83,5.83,0,0,1-4-1.38l1-1.12a4.77,4.77,0,0,0,3,1,2.88,2.88,0,0,0,1.65-.43,1.38,1.38,0,0,0,.61-1.17,1.6,1.6,0,0,0-.22-.87,1.76,1.76,0,0,0-.76-.58,9.52,9.52,0,0,0-1.58-.53,5.5,5.5,0,0,1-2.43-1.18,2.54,2.54,0,0,1-.75-1.88,2.42,2.42,0,0,1,.49-1.49,3.07,3.07,0,0,1,1.36-1,4.88,4.88,0,0,1,2-.37A5.9,5.9,0,0,1,46.28,179.32Z" fill="#333"/><path d="M56.14,189.32a4.06,4.06,0,0,1-2.36.72,2.79,2.79,0,0,1-2.09-.77,3.08,3.08,0,0,1-.75-2.23v-6.36H49.1v-1.42h1.84v-2.38l1.84-.22v2.6h2.5l-.2,1.42h-2.3V187a1.91,1.91,0,0,0,.29,1.19,1.17,1.17,0,0,0,1,.37,2.75,2.75,0,0,0,1.4-.46Z" fill="#333"/><path d="M65.88,189.8H64.3l-.14-1.64a4,4,0,0,1-1.38,1.43,3.76,3.76,0,0,1-1.9.45,2.8,2.8,0,0,1-2.16-.84,3.38,3.38,0,0,1-.78-2.38v-7.56h1.84v7.36a2.35,2.35,0,0,0,.38,1.53,1.53,1.53,0,0,0,1.24.45A3.15,3.15,0,0,0,64,186.78v-7.52h1.84Z" fill="#333"/><path d="M82.34,179.89a3.38,3.38,0,0,1,.78,2.35v7.56H81.28v-7.3c0-1.36-.5-2-1.48-2a2,2,0,0,0-1.32.45,6.21,6.21,0,0,0-1.16,1.41v7.48H75.48v-7.3c0-1.36-.5-2-1.48-2a2,2,0,0,0-1.34.46,6.08,6.08,0,0,0-1.14,1.4v7.48H69.68V179.26h1.58l.16,1.54a3.52,3.52,0,0,1,3-1.78,2.65,2.65,0,0,1,2.66,1.9,4.74,4.74,0,0,1,1.37-1.41,3.14,3.14,0,0,1,1.77-.49A2.67,2.67,0,0,1,82.34,179.89Z" fill="#333"/><path d="M94.62,180.46a7.46,7.46,0,0,1,.94,4.06,6.78,6.78,0,0,1-1.08,4A3.54,3.54,0,0,1,91.42,190a3.38,3.38,0,0,1-2.76-1.2v5l-1.84.22v-14.8H88.4l.14,1.42a3.82,3.82,0,0,1,1.4-1.23,3.6,3.6,0,0,1,1.72-.43A3.29,3.29,0,0,1,94.62,180.46Zm-1,4.06c0-2.7-.8-4-2.38-4a2.34,2.34,0,0,0-1.42.46,4.37,4.37,0,0,0-1.12,1.18v5.14a2.75,2.75,0,0,0,1,1,2.69,2.69,0,0,0,1.32.33Q93.57,188.54,93.58,184.52Z" fill="#333"/><path d="M101.08,176.65a1.59,1.59,0,0,0-.36,1.15v1.46h2.56l-.2,1.42h-2.36v9.12H98.88v-9.12H97v-1.42h1.88v-1.44a2.88,2.88,0,0,1,.87-2.19,3.35,3.35,0,0,1,2.43-.83,5.63,5.63,0,0,1,1.29.13,6.56,6.56,0,0,1,1.23.41l-.58,1.34a4.46,4.46,0,0,0-1.84-.4A1.61,1.61,0,0,0,101.08,176.65Z" fill="#333"/><path d="M115,189.8h-2.5l-1.84-8.88-1.91,8.88h-2.44l-2.45-10.54h1.84l1.9,9.26,2.08-9.26h2l2,9.26,1.93-9.26h1.76Z" fill="#333"/><path d="M121.58,174.56a1.21,1.21,0,0,1,.35.9,1.19,1.19,0,0,1-.35.89,1.34,1.34,0,0,1-1,.35,1.3,1.3,0,0,1-.92-.35,1.24,1.24,0,0,1-.36-.89,1.23,1.23,0,0,1,1.28-1.26A1.31,1.31,0,0,1,121.58,174.56Zm0,15.24h-1.85V179.26h1.85Z" fill="#333"/><path d="M132.59,179.88a3.3,3.3,0,0,1,.81,2.36v7.56h-1.84v-7.3a2.32,2.32,0,0,0-.42-1.58,1.59,1.59,0,0,0-1.24-.46,2.39,2.39,0,0,0-1.48.48,4.89,4.89,0,0,0-1.2,1.38v7.48h-1.84V179.26H127l.16,1.56a4.07,4.07,0,0,1,1.39-1.32,3.57,3.57,0,0,1,1.83-.48A2.92,2.92,0,0,1,132.59,179.88Z" fill="#333"/><path d="M138.94,189.8H137.1V175l1.84-.22Zm2.18-5.88,4.32,5.88h-2.2L139.06,184l3.88-4.78H145Z" fill="#333"/><path d="M147.82,189.43a2.38,2.38,0,0,1-.59-1.71V175l1.84-.22v12.88a1.18,1.18,0,0,0,.15.64.61.61,0,0,0,.51.2,1.88,1.88,0,0,0,.69-.12l.47,1.28a3,3,0,0,1-1.46.36A2.17,2.17,0,0,1,147.82,189.43Z" fill="#333"/><path d="M155,174.56a1.21,1.21,0,0,1,.35.9,1.19,1.19,0,0,1-.35.89,1.34,1.34,0,0,1-.95.35,1.3,1.3,0,0,1-.92-.35,1.2,1.2,0,0,1-.36-.89,1.22,1.22,0,0,1,.36-.9,1.27,1.27,0,0,1,.92-.36A1.31,1.31,0,0,1,155,174.56Zm0,15.24H153.2V179.26H155Z" fill="#333"/><path d="M167.33,179.74A5.83,5.83,0,0,1,166,180c-.48,0-1.06.06-1.76.06a2.78,2.78,0,0,1,1.86,2.66A3.37,3.37,0,0,1,165,185.3a4.19,4.19,0,0,1-2.94,1,4.48,4.48,0,0,1-1.34-.2,1,1,0,0,0-.37.43,1.11,1.11,0,0,0-.15.55c0,.57.46.86,1.38.86h1.68a4.3,4.3,0,0,1,1.88.38,3,3,0,0,1,1.27,1,2.6,2.6,0,0,1,.45,1.5,2.69,2.69,0,0,1-1.26,2.37,6.73,6.73,0,0,1-3.68.83,8.43,8.43,0,0,1-2.69-.35,2.62,2.62,0,0,1-1.41-1.05,3.48,3.48,0,0,1-.42-1.8h1.66a1.86,1.86,0,0,0,.24,1,1.56,1.56,0,0,0,.86.56,6.61,6.61,0,0,0,1.76.19,5,5,0,0,0,2.37-.41A1.33,1.33,0,0,0,165,191a1.24,1.24,0,0,0-.56-1.12,2.67,2.67,0,0,0-1.55-.38h-1.67a3.13,3.13,0,0,1-2-.57,1.78,1.78,0,0,1-.69-1.43,1.85,1.85,0,0,1,.3-1,2.93,2.93,0,0,1,.86-.86,3,3,0,0,1-1.77-2.92,3.5,3.5,0,0,1,.52-1.9,3.63,3.63,0,0,1,1.46-1.31A4.44,4.44,0,0,1,162,179a15.65,15.65,0,0,0,2.08-.09,8.23,8.23,0,0,0,1.39-.3c.37-.13.82-.31,1.35-.55Zm-7,1.25a2.84,2.84,0,0,0,0,3.44,2.07,2.07,0,0,0,1.63.65,2.15,2.15,0,0,0,1.66-.63,2.59,2.59,0,0,0,.56-1.77c0-1.56-.75-2.34-2.26-2.34A2,2,0,0,0,160.36,181Z" fill="#333"/><path d="M31.13,235.12h-4.7v3.55a4.11,4.11,0,0,1,1.93-.47,3.2,3.2,0,0,1,2.48,1,3.93,3.93,0,0,1,.94,2.79,4.32,4.32,0,0,1-.52,2.12,3.64,3.64,0,0,1-1.47,1.44,4.54,4.54,0,0,1-2.19.51,4.89,4.89,0,0,1-2-.38,5.11,5.11,0,0,1-1.6-1.15l1-1a3.4,3.4,0,0,0,1.15.87,3.24,3.24,0,0,0,1.38.28,2.31,2.31,0,0,0,1.81-.72,2.9,2.9,0,0,0,.66-2,2.65,2.65,0,0,0-.59-1.91,2.16,2.16,0,0,0-1.61-.59,3.33,3.33,0,0,0-.86.1,4.44,4.44,0,0,0-.85.31H24.85v-6.07h6.51Z" fill="#333"/><path d="M40.15,235.12h-4.7v3.55a4.08,4.08,0,0,1,1.93-.47,3.2,3.2,0,0,1,2.48,1A4,4,0,0,1,40.8,242a4.22,4.22,0,0,1-.53,2.12,3.55,3.55,0,0,1-1.46,1.44,4.54,4.54,0,0,1-2.19.51,4.86,4.86,0,0,1-2-.38,5.11,5.11,0,0,1-1.6-1.15l1-1a3.43,3.43,0,0,0,1.16.87,3.21,3.21,0,0,0,1.38.28,2.33,2.33,0,0,0,1.81-.72,2.9,2.9,0,0,0,.66-2,2.6,2.6,0,0,0-.6-1.91,2.14,2.14,0,0,0-1.6-.59,3.33,3.33,0,0,0-.86.1,4.21,4.21,0,0,0-.85.31H33.87v-6.07h6.51Z" fill="#333"/><path d="M44.1,238.67a2.76,2.76,0,0,1-1.09-1,3.1,3.1,0,0,1,0-3.08,2.76,2.76,0,0,1,1.09-1,3.26,3.26,0,0,1,2.9,0,2.71,2.71,0,0,1,1.09,1,3.12,3.12,0,0,1,0,3.09,2.8,2.8,0,0,1-1.09,1,3.31,3.31,0,0,1-2.9,0Zm2.56-1.23a1.75,1.75,0,0,0,.45-1.29,1.8,1.8,0,0,0-.45-1.31,1.59,1.59,0,0,0-2.23,0,1.75,1.75,0,0,0-.45,1.3,1.73,1.73,0,0,0,.46,1.3,1.58,1.58,0,0,0,2.22,0Z" fill="#333"/><path d="M88.74,306.53a5.4,5.4,0,0,1,1,3.43,10,10,0,0,1-.67,4,5.37,5.37,0,0,1-2,2.39,14.21,14.21,0,0,1-3.71,1.58l-.38-1.24a9.21,9.21,0,0,0,3.7-1.86A4.27,4.27,0,0,0,88,311.69a3.25,3.25,0,0,1-4.4,1,3.27,3.27,0,0,1-1.19-1.35,4.38,4.38,0,0,1-.44-2,4.11,4.11,0,0,1,.52-2.12,3.55,3.55,0,0,1,1.39-1.38,4,4,0,0,1,1.94-.48A3.49,3.49,0,0,1,88.74,306.53Zm-.69,3.81a5.57,5.57,0,0,0-.49-2.87,1.84,1.84,0,0,0-1.69-.87,2,2,0,0,0-1.63.7,3,3,0,0,0-.58,2,2.84,2.84,0,0,0,.54,1.89,1.81,1.81,0,0,0,1.46.64A2.81,2.81,0,0,0,88.05,310.34Z" fill="#333"/><path d="M98.19,306.76h-4.7v3.54a4.18,4.18,0,0,1,1.92-.46,3.26,3.26,0,0,1,2.49,1,4,4,0,0,1,.93,2.8,4.24,4.24,0,0,1-.52,2.12,3.7,3.7,0,0,1-1.47,1.44,4.53,4.53,0,0,1-2.18.51,4.74,4.74,0,0,1-2-.39,5.36,5.36,0,0,1-1.6-1.14l1-1a3.68,3.68,0,0,0,1.15.87,3.26,3.26,0,0,0,1.39.28,2.33,2.33,0,0,0,1.81-.72,2.9,2.9,0,0,0,.65-2,2.59,2.59,0,0,0-.59-1.91,2.14,2.14,0,0,0-1.6-.6,4,4,0,0,0-.87.1,4.45,4.45,0,0,0-.84.32H91.9v-6.07h6.52Z" fill="#333"/><path d="M102.14,310.3a2.62,2.62,0,0,1-1.09-1,3,3,0,0,1,0-3.07,2.69,2.69,0,0,1,1.09-1,3.24,3.24,0,0,1,2.89,0,2.65,2.65,0,0,1,1.09,1,3,3,0,0,1,0,3.08,2.6,2.6,0,0,1-1.09,1,3.26,3.26,0,0,1-1.45.34A3.12,3.12,0,0,1,102.14,310.3Zm2.56-1.22a2.1,2.1,0,0,0,0-2.6,1.49,1.49,0,0,0-1.12-.46,1.51,1.51,0,0,0-1.11.45,1.75,1.75,0,0,0-.45,1.3,1.73,1.73,0,0,0,.46,1.3,1.47,1.47,0,0,0,1.1.46A1.52,1.52,0,0,0,104.7,309.08Z" fill="#333"/><path d="M169.46,215a3,3,0,0,1,1.22,1.11,2.86,2.86,0,0,1,.43,1.53,2.61,2.61,0,0,1-.64,1.81,3.24,3.24,0,0,1-1.7,1,3.09,3.09,0,0,1,2,.86,2.78,2.78,0,0,1,.75,2.05,3.56,3.56,0,0,1-.5,1.89,3.41,3.41,0,0,1-1.44,1.32,4.65,4.65,0,0,1-2.16.48,5,5,0,0,1-2-.4,4.47,4.47,0,0,1-1.6-1.22l1-.92a4.08,4.08,0,0,0,1.22.9,3,3,0,0,0,1.36.29,2.41,2.41,0,0,0,1.78-.64,2.31,2.31,0,0,0,.65-1.72,2,2,0,0,0-.62-1.67,2.82,2.82,0,0,0-1.78-.49h-.9l.2-1.27h.61a2.24,2.24,0,0,0,1.56-.56,2,2,0,0,0,.62-1.57,1.73,1.73,0,0,0-.54-1.34,2.08,2.08,0,0,0-1.46-.49,3.14,3.14,0,0,0-1.28.25,4.2,4.2,0,0,0-1.2.83l-.87-1a4.93,4.93,0,0,1,3.44-1.43A4.06,4.06,0,0,1,169.46,215Z" fill="#333"/><path d="M180.51,216.15a11,11,0,0,1,0,9.24,3.64,3.64,0,0,1-6,0,11,11,0,0,1,0-9.24,3.64,3.64,0,0,1,6,0Zm-4.75.87a9,9,0,0,0-.57,3.74,9.13,9.13,0,0,0,.57,3.76,1.87,1.87,0,0,0,3.46,0,8.93,8.93,0,0,0,.58-3.76,8.8,8.8,0,0,0-.58-3.73,1.87,1.87,0,0,0-3.46,0Z" fill="#333"/><path d="M185,219.58a2.76,2.76,0,0,1-1.09-1,3.1,3.1,0,0,1,0-3.08,2.76,2.76,0,0,1,1.09-1,3.26,3.26,0,0,1,2.9,0,2.71,2.71,0,0,1,1.09,1,2.91,2.91,0,0,1,.41,1.55,2.84,2.84,0,0,1-.41,1.53,2.76,2.76,0,0,1-1.09,1,3.31,3.31,0,0,1-2.9,0Zm2.57-1.23a1.75,1.75,0,0,0,.45-1.29,1.8,1.8,0,0,0-.45-1.31,1.5,1.5,0,0,0-1.12-.46,1.53,1.53,0,0,0-1.12.45,1.75,1.75,0,0,0-.45,1.3,1.77,1.77,0,0,0,.46,1.3,1.51,1.51,0,0,0,1.11.46A1.53,1.53,0,0,0,187.58,218.35Z" fill="#333"/><path d="M451.53,214.46H450v3h-1.6v-3h-5.15v-1.19l3.62-8.06,1.38.57L445,213.15h3.42l.15-3.24H450v3.24h1.56Z" fill="#333"/><path d="M460.11,206.8a11,11,0,0,1,0,9.24,3.63,3.63,0,0,1-6,0,11,11,0,0,1,0-9.24,3.65,3.65,0,0,1,6,0Zm-4.75.87a12.62,12.62,0,0,0,0,7.5,1.87,1.87,0,0,0,3.46,0,12.38,12.38,0,0,0,0-7.49,1.87,1.87,0,0,0-3.46,0Z" fill="#333"/><path d="M464.61,210.23a2.76,2.76,0,0,1-1.09-1,3.1,3.1,0,0,1,0-3.08,2.83,2.83,0,0,1,1.09-1,3.26,3.26,0,0,1,2.9,0,2.78,2.78,0,0,1,1.09,1,2.94,2.94,0,0,1,.41,1.55,2.88,2.88,0,0,1-.41,1.54,2.66,2.66,0,0,1-1.09,1,3.25,3.25,0,0,1-1.45.33A3.13,3.13,0,0,1,464.61,210.23Zm2.57-1.22a2.1,2.1,0,0,0,0-2.6,1.5,1.5,0,0,0-1.12-.46,1.53,1.53,0,0,0-1.12.45,1.75,1.75,0,0,0-.45,1.29A1.8,1.8,0,0,0,465,209a1.55,1.55,0,0,0,1.11.46A1.53,1.53,0,0,0,467.18,209Z" fill="#333"/><path d="M259,311.34v17.77h17.77A17.77,17.77,0,0,0,259,311.34Z" fill="none" stroke="#ff4848" stroke-miterlimit="10" stroke-width="2"/><polygon points="259 231.71 259 329.11 310.39 329.11 259 231.71" fill="none" stroke="#333" stroke-miterlimit="10" stroke-width="2"/><path d="M259,231.71v17.78a17.7,17.7,0,0,0,8.29-2.06Z" fill="none" stroke="#333" stroke-miterlimit="10" stroke-width="2"/><path d="M302.1,313.39a17.76,17.76,0,0,0-9.48,15.72h17.77Z" fill="none" stroke="#333" stroke-miterlimit="10" stroke-width="2"/><circle cx="265.8" cy="321.91" r="1.69" fill="#ff4848"/><path d="M254.27,209.57a3,3,0,0,1,1.23,1.12,2.94,2.94,0,0,1,.42,1.53,2.6,2.6,0,0,1-.64,1.81,3.26,3.26,0,0,1-1.7,1,3,3,0,0,1,2,.87,2.77,2.77,0,0,1,.76,2,3.62,3.62,0,0,1-.51,1.89,3.42,3.42,0,0,1-1.44,1.32,4.65,4.65,0,0,1-2.16.48,4.91,4.91,0,0,1-2-.41,4.39,4.39,0,0,1-1.61-1.21l1-.92a4.21,4.21,0,0,0,1.22.9,3.22,3.22,0,0,0,1.36.29,2.45,2.45,0,0,0,1.78-.64,2.32,2.32,0,0,0,.65-1.72,2.07,2.07,0,0,0-.61-1.68,2.87,2.87,0,0,0-1.79-.48h-.9l.2-1.28h.61a2.2,2.2,0,0,0,1.56-.56,2,2,0,0,0,.62-1.56,1.72,1.72,0,0,0-.54-1.34,2.07,2.07,0,0,0-1.46-.5,3.36,3.36,0,0,0-1.28.25,4.41,4.41,0,0,0-1.2.83l-.86-1a4.9,4.9,0,0,1,3.43-1.42A4.19,4.19,0,0,1,254.27,209.57Z" fill="#333"/><path d="M265.32,210.75a11,11,0,0,1,0,9.24,3.63,3.63,0,0,1-6,0,11.07,11.07,0,0,1,0-9.24,3.65,3.65,0,0,1,6,0Zm-4.75.88a12.59,12.59,0,0,0,0,7.49,1.88,1.88,0,0,0,3.47,0,12.59,12.59,0,0,0,0-7.49,1.88,1.88,0,0,0-3.47,0Z" fill="#333"/><path d="M269.82,214.18a2.76,2.76,0,0,1-1.09-1,3.1,3.1,0,0,1,0-3.08,2.73,2.73,0,0,1,1.09-1,3.18,3.18,0,0,1,2.9,0,2.68,2.68,0,0,1,1.09,1,2.85,2.85,0,0,1,.41,1.55,2.79,2.79,0,0,1-.41,1.54,2.66,2.66,0,0,1-1.09,1,3.25,3.25,0,0,1-1.45.33A3.16,3.16,0,0,1,269.82,214.18Zm2.57-1.22a2.1,2.1,0,0,0,0-2.6,1.49,1.49,0,0,0-1.12-.46,1.51,1.51,0,0,0-1.11.45,2.08,2.08,0,0,0,0,2.6,1.58,1.58,0,0,0,2.22,0Z" fill="#333"/><path d="M233.52,317.55a5.37,5.37,0,0,1,1,3.43,9.77,9.77,0,0,1-.67,4,5.35,5.35,0,0,1-2,2.4,14.08,14.08,0,0,1-3.71,1.57l-.38-1.24a9.08,9.08,0,0,0,3.7-1.85,4.29,4.29,0,0,0,1.38-3.12,3.14,3.14,0,0,1-1.12,1.05,3.19,3.19,0,0,1-1.58.39,3.05,3.05,0,0,1-1.69-.47,3.29,3.29,0,0,1-1.2-1.35,4.55,4.55,0,0,1-.44-2.05,4.14,4.14,0,0,1,.52-2.12,3.57,3.57,0,0,1,1.4-1.38,4,4,0,0,1,1.93-.47A3.46,3.46,0,0,1,233.52,317.55Zm-.69,3.8a5.59,5.59,0,0,0-.49-2.87,1.83,1.83,0,0,0-1.68-.87,2,2,0,0,0-1.64.7,3.06,3.06,0,0,0-.58,2,2.89,2.89,0,0,0,.54,1.9,1.81,1.81,0,0,0,1.46.64A2.8,2.8,0,0,0,232.83,321.35Z" fill="#333"/><path d="M243.45,317.89a11.07,11.07,0,0,1,0,9.24,3.64,3.64,0,0,1-6,0,11,11,0,0,1,0-9.24,3.65,3.65,0,0,1,6,0Zm-4.76.87a12.84,12.84,0,0,0,0,7.5,1.88,1.88,0,0,0,3.47,0,12.59,12.59,0,0,0,0-7.49,1.88,1.88,0,0,0-3.47,0Z" fill="#333"/><path d="M248,321.32a2.69,2.69,0,0,1-1.09-1,3,3,0,0,1,0-3.08,2.69,2.69,0,0,1,1.09-1,3.24,3.24,0,0,1,2.89,0,2.71,2.71,0,0,1,1.09,1,2.83,2.83,0,0,1,.42,1.55,2.8,2.8,0,0,1-.42,1.54,2.6,2.6,0,0,1-1.09,1,3.25,3.25,0,0,1-1.45.33A3.12,3.12,0,0,1,248,321.32Zm2.56-1.23a1.75,1.75,0,0,0,.45-1.29,1.8,1.8,0,0,0-.45-1.31,1.59,1.59,0,0,0-2.23,0,2.1,2.1,0,0,0,0,2.61,1.59,1.59,0,0,0,2.22,0Z" fill="#333"/><path d="M324.79,321a3.06,3.06,0,0,1,1.21,1.3,4.47,4.47,0,0,1,.45,2.1,4.71,4.71,0,0,1-.52,2.26,3.68,3.68,0,0,1-1.38,1.51,3.6,3.6,0,0,1-1.94.53,3.33,3.33,0,0,1-3.07-1.55,8.11,8.11,0,0,1-1-4.31,10.07,10.07,0,0,1,.55-3.45,5.18,5.18,0,0,1,1.58-2.31,3.79,3.79,0,0,1,2.43-.81,4.4,4.4,0,0,1,2.48.73l-.65,1.1a3.43,3.43,0,0,0-1.85-.52,2.3,2.3,0,0,0-2.05,1.24,6.8,6.8,0,0,0-.83,3.33,3.41,3.41,0,0,1,2.9-1.58A3.27,3.27,0,0,1,324.79,321Zm-.57,5.6a3.67,3.67,0,0,0,.55-2.14c0-1.72-.64-2.58-1.94-2.58a2.63,2.63,0,0,0-1.46.44,3.81,3.81,0,0,0-1.13,1.22,6,6,0,0,0,.62,2.91,1.9,1.9,0,0,0,1.75.94A1.85,1.85,0,0,0,324.22,326.63Z" fill="#333"/><path d="M335.2,317.89a11,11,0,0,1,0,9.24,3.64,3.64,0,0,1-6,0,11.07,11.07,0,0,1,0-9.24,3.65,3.65,0,0,1,6,0Zm-4.75.87a12.62,12.62,0,0,0,0,7.5,1.88,1.88,0,0,0,3.47,0,12.59,12.59,0,0,0,0-7.49,1.88,1.88,0,0,0-3.47,0Z" fill="#333"/><path d="M339.7,321.32a2.66,2.66,0,0,1-1.08-1,3,3,0,0,1,0-3.08,2.66,2.66,0,0,1,1.08-1,3.26,3.26,0,0,1,2.9,0,2.71,2.71,0,0,1,1.09,1,2.83,2.83,0,0,1,.42,1.55,2.8,2.8,0,0,1-.42,1.54,2.67,2.67,0,0,1-1.09,1,3.25,3.25,0,0,1-1.45.33A3.16,3.16,0,0,1,339.7,321.32Zm2.57-1.23a1.75,1.75,0,0,0,.45-1.29,1.8,1.8,0,0,0-.45-1.31,1.59,1.59,0,0,0-2.23,0,1.77,1.77,0,0,0-.45,1.3,1.73,1.73,0,0,0,.46,1.3,1.47,1.47,0,0,0,1.1.46A1.52,1.52,0,0,0,342.27,320.09Z" fill="#333"/><polygon points="166.71 543.88 54.32 543.88 110.51 453.12 166.71 543.88" fill="none" stroke="#ff4848" stroke-miterlimit="10" stroke-width="2"/><path d="M66.83,523.67,54.32,543.89H78.1A23.75,23.75,0,0,0,66.83,523.67Z" fill="none" stroke="#ff4848" stroke-miterlimit="10" stroke-width="2"/><path d="M98.62,472.33a23.77,23.77,0,0,0,23.79,0l-11.9-19.21Z" fill="none" stroke="#ff4848" stroke-miterlimit="10" stroke-width="2"/><path d="M154.19,523.67a23.75,23.75,0,0,0-11.27,20.22h23.79Z" fill="none" stroke="#ff4848" stroke-miterlimit="10" stroke-width="2"/><path d="M106.57,437.11a3.06,3.06,0,0,1,1.21,1.3,4.51,4.51,0,0,1,.45,2.11,4.67,4.67,0,0,1-.52,2.25,3.77,3.77,0,0,1-1.38,1.52,3.69,3.69,0,0,1-1.94.53,3.34,3.34,0,0,1-3.07-1.56,8.11,8.11,0,0,1-1-4.31,10.07,10.07,0,0,1,.55-3.45,5.09,5.09,0,0,1,1.58-2.3,3.74,3.74,0,0,1,2.43-.82,4.33,4.33,0,0,1,2.48.74l-.65,1.09a3.51,3.51,0,0,0-1.85-.52,2.31,2.31,0,0,0-2,1.25,6.74,6.74,0,0,0-.83,3.33,3.4,3.4,0,0,1,2.9-1.59A3.27,3.27,0,0,1,106.57,437.11Zm-.57,5.6a3.67,3.67,0,0,0,.55-2.14c0-1.72-.64-2.58-1.94-2.58a2.57,2.57,0,0,0-1.46.45,3.77,3.77,0,0,0-1.13,1.21,6.07,6.07,0,0,0,.62,2.92,1.91,1.91,0,0,0,1.75.93A1.85,1.85,0,0,0,106,442.71Z" fill="#333"/><path d="M117,434a11,11,0,0,1,0,9.24,3.63,3.63,0,0,1-6,0,11.07,11.07,0,0,1,0-9.24,3.65,3.65,0,0,1,6,0Zm-4.75.88a12.8,12.8,0,0,0,0,7.49,1.88,1.88,0,0,0,3.47,0,12.59,12.59,0,0,0,0-7.49,1.88,1.88,0,0,0-3.47,0Z" fill="#333"/><path d="M121.48,437.4a2.66,2.66,0,0,1-1.08-1,3,3,0,0,1,0-3.08,2.73,2.73,0,0,1,1.08-1,3.26,3.26,0,0,1,2.9,0,2.78,2.78,0,0,1,1.09,1,2.86,2.86,0,0,1,.42,1.55,2.8,2.8,0,0,1-.42,1.54,2.66,2.66,0,0,1-1.09,1,3.25,3.25,0,0,1-1.45.33A3.16,3.16,0,0,1,121.48,437.4Zm2.57-1.22a2.1,2.1,0,0,0,0-2.6,1.49,1.49,0,0,0-1.12-.46,1.51,1.51,0,0,0-1.11.45,2.08,2.08,0,0,0,0,2.6,1.58,1.58,0,0,0,2.22,0Z" fill="#333"/><path d="M30.57,535.43a3.12,3.12,0,0,1,1.21,1.3,4.49,4.49,0,0,1,.45,2.1,4.68,4.68,0,0,1-.52,2.26,3.77,3.77,0,0,1-1.38,1.52,3.72,3.72,0,0,1-1.94.53,3.37,3.37,0,0,1-3.08-1.56,8.21,8.21,0,0,1-1-4.31,9.83,9.83,0,0,1,.55-3.45,5.09,5.09,0,0,1,1.58-2.3,3.74,3.74,0,0,1,2.43-.82,4.33,4.33,0,0,1,2.48.74l-.65,1.09a3.51,3.51,0,0,0-1.85-.52,2.31,2.31,0,0,0-2.05,1.24,6.8,6.8,0,0,0-.83,3.33A3.41,3.41,0,0,1,28.9,535,3.27,3.27,0,0,1,30.57,535.43ZM30,541a3.6,3.6,0,0,0,.56-2.14c0-1.72-.65-2.58-1.94-2.58a2.61,2.61,0,0,0-1.46.44A3.81,3.81,0,0,0,26,538a6.07,6.07,0,0,0,.62,2.92,1.91,1.91,0,0,0,1.75.93A1.82,1.82,0,0,0,30,541Z" fill="#333"/><path d="M41,532.29a11,11,0,0,1,0,9.24,3.63,3.63,0,0,1-6,0,11.07,11.07,0,0,1,0-9.24,3.65,3.65,0,0,1,6,0Zm-4.75.87a12.62,12.62,0,0,0,0,7.5,1.88,1.88,0,0,0,3.47,0,12.59,12.59,0,0,0,0-7.49,1.88,1.88,0,0,0-3.47,0Z" fill="#333"/><path d="M45.48,535.72a2.76,2.76,0,0,1-1.09-1,3.1,3.1,0,0,1,0-3.08,2.76,2.76,0,0,1,1.09-1,3.26,3.26,0,0,1,2.9,0,2.78,2.78,0,0,1,1.09,1,2.85,2.85,0,0,1,.41,1.55,2.79,2.79,0,0,1-.41,1.54,2.66,2.66,0,0,1-1.09,1,3.25,3.25,0,0,1-1.45.33A3.16,3.16,0,0,1,45.48,535.72Zm2.57-1.22a2.1,2.1,0,0,0,0-2.6,1.49,1.49,0,0,0-1.12-.46,1.51,1.51,0,0,0-1.11.45,1.75,1.75,0,0,0-.45,1.29,1.8,1.8,0,0,0,.45,1.31,1.55,1.55,0,0,0,1.11.46A1.52,1.52,0,0,0,48.05,534.5Z" fill="#333"/><path d="M181.08,535.43a3.1,3.1,0,0,1,1.2,1.3,4.49,4.49,0,0,1,.45,2.1,4.8,4.8,0,0,1-.51,2.26,3.64,3.64,0,0,1-1.39,1.51,3.58,3.58,0,0,1-1.93.54,3.37,3.37,0,0,1-3.08-1.56,8.12,8.12,0,0,1-1-4.31,9.83,9.83,0,0,1,.55-3.45,5.07,5.07,0,0,1,1.57-2.3,3.78,3.78,0,0,1,2.43-.82,4.38,4.38,0,0,1,2.49.74l-.65,1.09a3.55,3.55,0,0,0-1.86-.52,2.33,2.33,0,0,0-2,1.24,6.91,6.91,0,0,0-.83,3.33,3.42,3.42,0,0,1,2.9-1.58A3.34,3.34,0,0,1,181.08,535.43Zm-.58,5.6a3.67,3.67,0,0,0,.56-2.14q0-2.58-1.95-2.58a2.6,2.6,0,0,0-1.45.44,3.72,3.72,0,0,0-1.14,1.22,6.32,6.32,0,0,0,.62,2.92,1.92,1.92,0,0,0,1.76.93A1.84,1.84,0,0,0,180.5,541Z" fill="#333"/><path d="M191.49,532.29a11,11,0,0,1,0,9.24,3.63,3.63,0,0,1-6,0,11,11,0,0,1,0-9.24,3.65,3.65,0,0,1,6,0Zm-4.75.87a12.62,12.62,0,0,0,0,7.5,1.87,1.87,0,0,0,3.46,0,12.38,12.38,0,0,0,0-7.49,1.87,1.87,0,0,0-3.46,0Z" fill="#333"/><path d="M196,535.72a2.76,2.76,0,0,1-1.09-1,3.1,3.1,0,0,1,0-3.08,2.76,2.76,0,0,1,1.09-1,3.26,3.26,0,0,1,2.9,0,2.78,2.78,0,0,1,1.09,1,2.94,2.94,0,0,1,.41,1.55,2.88,2.88,0,0,1-.41,1.54,2.66,2.66,0,0,1-1.09,1,3.28,3.28,0,0,1-1.45.33A3.13,3.13,0,0,1,196,535.72Zm2.56-1.22a1.77,1.77,0,0,0,.45-1.3,1.81,1.81,0,0,0-.45-1.31,1.61,1.61,0,0,0-2.23,0,1.75,1.75,0,0,0-.45,1.29,1.8,1.8,0,0,0,.46,1.31,1.54,1.54,0,0,0,1.11.45A1.5,1.5,0,0,0,198.55,534.5Z" fill="#333"/><path d="M393.73,308.92a3.16,3.16,0,0,1-.53,1.78,3.51,3.51,0,0,1-1.48,1.22,5.18,5.18,0,0,1-2.16.44,5,5,0,0,1-2.16-.43,3.35,3.35,0,0,1-1.45-1.21,3,3,0,0,1-.52-1.76,2.86,2.86,0,0,1,.61-1.87,4.34,4.34,0,0,1,1.77-1.26,3.59,3.59,0,0,1-1.41-1.18,2.86,2.86,0,0,1-.46-1.63,2.74,2.74,0,0,1,.51-1.67,3.18,3.18,0,0,1,1.35-1.07,4.51,4.51,0,0,1,1.79-.36,4.63,4.63,0,0,1,1.78.35,3.08,3.08,0,0,1,1.35,1,2.69,2.69,0,0,1,.53,1.67,2.4,2.4,0,0,1-.51,1.54,4.28,4.28,0,0,1-1.55,1.17C392.89,306.37,393.73,307.45,393.73,308.92Zm-2.38,1.55a1.91,1.91,0,0,0,.65-1.53,2.17,2.17,0,0,0-.25-1.09,2.23,2.23,0,0,0-.81-.77,8.61,8.61,0,0,0-1.56-.68l-.45-.16a3.23,3.23,0,0,0-1.34,1.09,3,3,0,0,0-.43,1.63,1.92,1.92,0,0,0,.65,1.54,2.67,2.67,0,0,0,1.76.55A2.58,2.58,0,0,0,391.35,310.47Zm-3.24-8.82a1.76,1.76,0,0,0-.55,1.39,1.61,1.61,0,0,0,.53,1.31,5,5,0,0,0,1.7.83l.31.11a3.5,3.5,0,0,0,1.17-1,2.22,2.22,0,0,0,.36-1.28,1.77,1.77,0,0,0-.54-1.35,2.06,2.06,0,0,0-1.5-.5A2.16,2.16,0,0,0,388.11,301.65Z" fill="#333"/><path d="M402.58,301.52a11,11,0,0,1,0,9.24,3.64,3.64,0,0,1-6,0,11,11,0,0,1,0-9.24,3.64,3.64,0,0,1,6,0Zm-4.75.87a9,9,0,0,0-.57,3.74,9.13,9.13,0,0,0,.57,3.76,1.87,1.87,0,0,0,3.46,0,8.93,8.93,0,0,0,.58-3.76,8.8,8.8,0,0,0-.58-3.73,1.87,1.87,0,0,0-3.46,0Z" fill="#333"/><path d="M407.08,304.94a2.73,2.73,0,0,1-1.09-1,3.1,3.1,0,0,1,0-3.08,2.76,2.76,0,0,1,1.09-1,3.26,3.26,0,0,1,2.9,0,2.71,2.71,0,0,1,1.09,1,2.91,2.91,0,0,1,.41,1.55,2.84,2.84,0,0,1-.41,1.53,2.66,2.66,0,0,1-1.09,1,3.22,3.22,0,0,1-2.9,0Zm2.56-1.22a1.75,1.75,0,0,0,.45-1.29,1.8,1.8,0,0,0-.45-1.31,1.48,1.48,0,0,0-1.11-.46,1.52,1.52,0,0,0-1.12.45,1.75,1.75,0,0,0-.45,1.3,1.73,1.73,0,0,0,.46,1.3,1.58,1.58,0,0,0,2.22,0Z" fill="#333"/><path d="M499.28,317.08a3.06,3.06,0,0,1,1.21,1.3,4.47,4.47,0,0,1,.45,2.1,4.71,4.71,0,0,1-.52,2.26,3.68,3.68,0,0,1-1.38,1.51,3.6,3.6,0,0,1-1.94.53,3.33,3.33,0,0,1-3.07-1.55,8.11,8.11,0,0,1-1-4.31,10.07,10.07,0,0,1,.55-3.45,5.18,5.18,0,0,1,1.58-2.31,3.79,3.79,0,0,1,2.43-.81,4.4,4.4,0,0,1,2.48.73l-.65,1.1a3.43,3.43,0,0,0-1.85-.52,2.3,2.3,0,0,0-2,1.24,6.8,6.8,0,0,0-.83,3.33,3.41,3.41,0,0,1,2.9-1.58A3.27,3.27,0,0,1,499.28,317.08Zm-.57,5.6a3.67,3.67,0,0,0,.55-2.14c0-1.72-.64-2.58-1.94-2.58a2.63,2.63,0,0,0-1.46.44,3.81,3.81,0,0,0-1.13,1.22,6,6,0,0,0,.62,2.91,1.9,1.9,0,0,0,1.75.94A1.85,1.85,0,0,0,498.71,322.68Z" fill="#333"/><path d="M509.7,313.94a11.07,11.07,0,0,1,0,9.24,3.64,3.64,0,0,1-6,0,11,11,0,0,1,0-9.24,3.65,3.65,0,0,1,6,0Zm-4.76.87a12.84,12.84,0,0,0,0,7.5,1.88,1.88,0,0,0,3.47,0,12.59,12.59,0,0,0,0-7.49,1.88,1.88,0,0,0-3.47,0Z" fill="#333"/><path d="M514.2,317.37a2.69,2.69,0,0,1-1.09-1,3,3,0,0,1,0-3.08,2.69,2.69,0,0,1,1.09-1,3.09,3.09,0,0,1,1.44-.34,3.13,3.13,0,0,1,1.45.34,2.71,2.71,0,0,1,1.09,1,2.83,2.83,0,0,1,.42,1.55,2.8,2.8,0,0,1-.42,1.54,2.74,2.74,0,0,1-1.09,1,3.25,3.25,0,0,1-1.45.33A3.09,3.09,0,0,1,514.2,317.37Zm2.56-1.23a1.75,1.75,0,0,0,.45-1.29,1.8,1.8,0,0,0-.45-1.31,1.59,1.59,0,0,0-2.23,0,1.77,1.77,0,0,0-.45,1.3,1.73,1.73,0,0,0,.46,1.3,1.47,1.47,0,0,0,1.1.46A1.52,1.52,0,0,0,516.76,316.14Z" fill="#333"/><path d="M406.16,179.32a5.75,5.75,0,0,1,1.64.9l-.78,1.16a5.81,5.81,0,0,0-1.37-.68,4.14,4.14,0,0,0-1.37-.22,2.39,2.39,0,0,0-1.42.37,1.18,1.18,0,0,0-.52,1,1.2,1.2,0,0,0,.49,1,5.85,5.85,0,0,0,1.77.7,6.2,6.2,0,0,1,2.63,1.2,2.61,2.61,0,0,1,.87,2.08,2.69,2.69,0,0,1-1.21,2.38,5.17,5.17,0,0,1-2.95.82,5.84,5.84,0,0,1-4-1.38l1-1.12a4.79,4.79,0,0,0,3,1,2.84,2.84,0,0,0,1.65-.43,1.36,1.36,0,0,0,.61-1.17,1.52,1.52,0,0,0-.22-.87,1.7,1.7,0,0,0-.76-.58,9.2,9.2,0,0,0-1.58-.53,5.5,5.5,0,0,1-2.43-1.18,2.54,2.54,0,0,1-.75-1.88,2.49,2.49,0,0,1,.49-1.49,3.12,3.12,0,0,1,1.36-1,4.88,4.88,0,0,1,2-.37A5.85,5.85,0,0,1,406.16,179.32Z" fill="#333"/><path d="M418.5,180.46a7.37,7.37,0,0,1,.94,4.06,6.78,6.78,0,0,1-1.08,4A3.54,3.54,0,0,1,415.3,190a3.41,3.41,0,0,1-2.76-1.2v5l-1.84.22v-14.8h1.58l.14,1.42a4,4,0,0,1,1.4-1.23,3.63,3.63,0,0,1,1.72-.43A3.27,3.27,0,0,1,418.5,180.46Zm-1,4.06c0-2.7-.79-4-2.38-4a2.36,2.36,0,0,0-1.42.46,4.52,4.52,0,0,0-1.12,1.18v5.14a2.83,2.83,0,0,0,1,1,2.69,2.69,0,0,0,1.32.33C416.6,188.54,417.46,187.2,417.46,184.52Z" fill="#333"/><path d="M424.42,174.56a1.22,1.22,0,0,1,.36.9,1.2,1.2,0,0,1-.36.89,1.3,1.3,0,0,1-.94.35,1.28,1.28,0,0,1-.92-.35,1.2,1.2,0,0,1-.36-.89,1.22,1.22,0,0,1,.36-.9,1.25,1.25,0,0,1,.92-.36A1.27,1.27,0,0,1,424.42,174.56Zm0,15.24h-1.84V179.26h1.84Z" fill="#333"/><path d="M433.54,189.32a4,4,0,0,1-2.36.72,2.8,2.8,0,0,1-2.09-.77,3.08,3.08,0,0,1-.75-2.23v-6.36H426.5v-1.42h1.84v-2.38l1.84-.22v2.6h2.5l-.2,1.42h-2.3V187a2,2,0,0,0,.29,1.19,1.19,1.19,0,0,0,1,.37,2.72,2.72,0,0,0,1.4-.46Z" fill="#333"/><path d="M441.82,180.66l-5.5,7.6h5.56l-.22,1.54h-7.42v-1.38l5.48-7.6h-5v-1.56h7.12Z" fill="#333"/><path d="M454,189.8h-2.5l-1.84-8.88-1.9,8.88h-2.44l-2.46-10.54h1.84l1.9,9.26,2.08-9.26h2.06l2,9.26,1.92-9.26h1.76Z" fill="#333"/><path d="M460.56,174.56a1.22,1.22,0,0,1,.36.9,1.2,1.2,0,0,1-.36.89,1.3,1.3,0,0,1-.94.35,1.28,1.28,0,0,1-.92-.35,1.2,1.2,0,0,1-.36-.89,1.22,1.22,0,0,1,.36-.9,1.25,1.25,0,0,1,.92-.36A1.27,1.27,0,0,1,460.56,174.56Zm0,15.24h-1.84V179.26h1.84Z" fill="#333"/><path d="M471.57,179.88a3.3,3.3,0,0,1,.81,2.36v7.56h-1.84v-7.3a2.32,2.32,0,0,0-.42-1.58,1.58,1.58,0,0,0-1.24-.46,2.41,2.41,0,0,0-1.48.48,5.22,5.22,0,0,0-1.2,1.38v7.48h-1.84V179.26h1.58l.16,1.56a4.26,4.26,0,0,1,1.39-1.32,3.63,3.63,0,0,1,1.83-.48A2.92,2.92,0,0,1,471.57,179.88Z" fill="#333"/><path d="M477.92,189.8h-1.84V175l1.84-.22Zm2.18-5.88,4.32,5.88h-2.2L478,184l3.88-4.78H484Z" fill="#333"/><path d="M486.81,189.43a2.38,2.38,0,0,1-.59-1.71V175l1.84-.22v12.88a1.1,1.1,0,0,0,.15.64.61.61,0,0,0,.51.2,1.79,1.79,0,0,0,.68-.12l.48,1.28a3,3,0,0,1-1.46.36A2.17,2.17,0,0,1,486.81,189.43Z" fill="#333"/><path d="M494,174.56a1.22,1.22,0,0,1,.36.9,1.2,1.2,0,0,1-.36.89,1.3,1.3,0,0,1-.94.35,1.28,1.28,0,0,1-.92-.35,1.2,1.2,0,0,1-.36-.89,1.22,1.22,0,0,1,.36-.9,1.25,1.25,0,0,1,.92-.36A1.27,1.27,0,0,1,494,174.56Zm0,15.24h-1.84V179.26H494Z" fill="#333"/><path d="M506.32,179.74A5.83,5.83,0,0,1,505,180c-.48,0-1.06.06-1.76.06a2.78,2.78,0,0,1,1.86,2.66A3.37,3.37,0,0,1,504,185.3a4.19,4.19,0,0,1-2.94,1,4.48,4.48,0,0,1-1.34-.2,1.14,1.14,0,0,0-.38.43,1.21,1.21,0,0,0-.14.55c0,.57.46.86,1.38.86h1.68a4.3,4.3,0,0,1,1.88.38,3,3,0,0,1,1.27,1,2.6,2.6,0,0,1,.45,1.5,2.69,2.69,0,0,1-1.26,2.37,6.73,6.73,0,0,1-3.68.83,8.43,8.43,0,0,1-2.69-.35,2.62,2.62,0,0,1-1.41-1.05,3.48,3.48,0,0,1-.42-1.8h1.66a1.86,1.86,0,0,0,.24,1,1.56,1.56,0,0,0,.86.56,6.61,6.61,0,0,0,1.76.19,5,5,0,0,0,2.37-.41A1.33,1.33,0,0,0,504,191a1.24,1.24,0,0,0-.56-1.12,2.69,2.69,0,0,0-1.56-.38h-1.66a3.13,3.13,0,0,1-2-.57,1.78,1.78,0,0,1-.69-1.43,1.85,1.85,0,0,1,.3-1,2.93,2.93,0,0,1,.86-.86,3,3,0,0,1-1.78-2.92,3.51,3.51,0,0,1,.53-1.9,3.63,3.63,0,0,1,1.46-1.31A4.44,4.44,0,0,1,501,179a15.65,15.65,0,0,0,2.08-.09,8.23,8.23,0,0,0,1.39-.3c.37-.13.82-.31,1.35-.55Zm-7,1.25a2.49,2.49,0,0,0-.57,1.71,2.55,2.55,0,0,0,.58,1.73,2.43,2.43,0,0,0,3.29,0,2.55,2.55,0,0,0,.57-1.77c0-1.56-.75-2.34-2.26-2.34A2,2,0,0,0,499.35,181Z" fill="#333"/><path d="M233.74,179.28l-.34,1.8a3.75,3.75,0,0,0-.92-.12,2,2,0,0,0-1.58.72,5.41,5.41,0,0,0-.94,2.24v6h-1.84V179.4h1.58l.18,2.14a4,4,0,0,1,1.14-1.78,2.54,2.54,0,0,1,1.68-.6A4.24,4.24,0,0,1,233.74,179.28Z" fill="#333"/><path d="M243.56,185.3h-6.72a4.13,4.13,0,0,0,.88,2.56,2.54,2.54,0,0,0,2,.82,4.15,4.15,0,0,0,1.4-.22,5.24,5.24,0,0,0,1.34-.7l.8,1.1a5.81,5.81,0,0,1-3.68,1.32,4.28,4.28,0,0,1-3.43-1.44,5.9,5.9,0,0,1-1.23-4,7.59,7.59,0,0,1,.53-2.91,4.6,4.6,0,0,1,1.52-2,4.31,4.31,0,0,1,5.55.66,5.87,5.87,0,0,1,1.12,3.82C243.6,184.67,243.59,185,243.56,185.3Zm-1.78-1.48a3.86,3.86,0,0,0-.62-2.38,2.19,2.19,0,0,0-1.86-.82c-1.5,0-2.32,1.11-2.46,3.32h4.94Z" fill="#333"/><path d="M252.2,179.43a4.8,4.8,0,0,1,1.5.87l-.88,1.16a4.52,4.52,0,0,0-1.09-.59,3.34,3.34,0,0,0-1.17-.19,2.29,2.29,0,0,0-2,1,5.32,5.32,0,0,0-.71,3,5,5,0,0,0,.7,2.95,2.34,2.34,0,0,0,2,1,3.25,3.25,0,0,0,1.14-.19,5.7,5.7,0,0,0,1.16-.61l.84,1.2a5,5,0,0,1-3.22,1.16,4.19,4.19,0,0,1-3.37-1.44,5.92,5.92,0,0,1-1.23-4,7.24,7.24,0,0,1,.56-2.94,4.5,4.5,0,0,1,1.59-2,4.3,4.3,0,0,1,2.45-.7A5.22,5.22,0,0,1,252.2,179.43Z" fill="#333"/><path d="M263.41,180a3.3,3.3,0,0,1,.81,2.36v7.56h-1.84v-7.3a2.3,2.3,0,0,0-.43-1.58,1.6,1.6,0,0,0-1.25-.46,2.37,2.37,0,0,0-1.46.48,5.25,5.25,0,0,0-1.2,1.36v7.5H256.2V175.18L258,175v5.88a3.75,3.75,0,0,1,3.12-1.7A3,3,0,0,1,263.41,180Z" fill="#333"/><path d="M273.24,189.46a4,4,0,0,1-2.36.72,2.8,2.8,0,0,1-2.09-.77,3.07,3.07,0,0,1-.75-2.23v-6.36H266.2V179.4H268V177l1.84-.22v2.6h2.5l-.2,1.42h-2.3v6.28a1.94,1.94,0,0,0,.29,1.19,1.15,1.15,0,0,0,1,.37,2.63,2.63,0,0,0,1.4-.46Z" fill="#333"/><path d="M284.78,189.94h-2.5l-1.84-8.88-1.9,8.88H276.1l-2.46-10.54h1.84l1.9,9.26,2.08-9.26h2.06l2,9.26,1.92-9.26h1.76Z" fill="#333"/><path d="M291.32,174.7a1.22,1.22,0,0,1,.36.9,1.18,1.18,0,0,1-.36.89,1.3,1.3,0,0,1-.94.35,1.28,1.28,0,0,1-.92-.35,1.18,1.18,0,0,1-.36-.89,1.22,1.22,0,0,1,.36-.9,1.25,1.25,0,0,1,.92-.36A1.27,1.27,0,0,1,291.32,174.7Zm0,15.24h-1.84V179.4h1.84Z" fill="#333"/><path d="M302.33,180a3.3,3.3,0,0,1,.81,2.36v7.56H301.3v-7.3a2.35,2.35,0,0,0-.42-1.58,1.58,1.58,0,0,0-1.24-.46,2.41,2.41,0,0,0-1.48.48,4.89,4.89,0,0,0-1.2,1.38v7.48h-1.84V179.4h1.58l.16,1.56a4.17,4.17,0,0,1,1.39-1.32,3.6,3.6,0,0,1,1.83-.48A3,3,0,0,1,302.33,180Z" fill="#333"/><path d="M308.68,189.94h-1.84V175.16l1.84-.22Zm2.18-5.88,4.32,5.88H313l-4.18-5.76,3.88-4.78h2.06Z" fill="#333"/><path d="M317.57,189.57a2.37,2.37,0,0,1-.59-1.71v-12.7l1.84-.22v12.88a1.08,1.08,0,0,0,.15.64.61.61,0,0,0,.51.2,1.83,1.83,0,0,0,.68-.12l.48,1.28a3,3,0,0,1-1.46.36A2.12,2.12,0,0,1,317.57,189.57Z" fill="#333"/><path d="M324.78,174.7a1.22,1.22,0,0,1,.36.9,1.18,1.18,0,0,1-.36.89,1.3,1.3,0,0,1-.94.35,1.28,1.28,0,0,1-.92-.35,1.18,1.18,0,0,1-.36-.89,1.22,1.22,0,0,1,.36-.9,1.25,1.25,0,0,1,.92-.36A1.27,1.27,0,0,1,324.78,174.7Zm0,15.24h-1.84V179.4h1.84Z" fill="#333"/><path d="M337.08,179.88a5.83,5.83,0,0,1-1.32.26c-.48,0-1.07.06-1.76.06a2.79,2.79,0,0,1,1.86,2.66,3.35,3.35,0,0,1-1.08,2.58,4.75,4.75,0,0,1-4.28.8,1.13,1.13,0,0,0-.38.43,1.21,1.21,0,0,0-.14.55c0,.58.46.86,1.38.86H333a4.44,4.44,0,0,1,1.88.38,3,3,0,0,1,1.27,1,2.6,2.6,0,0,1,.45,1.5,2.66,2.66,0,0,1-1.26,2.37,6.75,6.75,0,0,1-3.68.83,8.43,8.43,0,0,1-2.69-.35,2.52,2.52,0,0,1-1.41-1,3.48,3.48,0,0,1-.42-1.8h1.66a1.84,1.84,0,0,0,.24,1,1.51,1.51,0,0,0,.86.56,6.17,6.17,0,0,0,1.76.19,5,5,0,0,0,2.37-.41,1.33,1.33,0,0,0,.71-1.23,1.27,1.27,0,0,0-.56-1.12,2.77,2.77,0,0,0-1.56-.38H331a3.13,3.13,0,0,1-2-.57,1.78,1.78,0,0,1-.69-1.43,1.85,1.85,0,0,1,.3-1,2.93,2.93,0,0,1,.86-.86,3.31,3.31,0,0,1-1.35-1.19,3.24,3.24,0,0,1-.43-1.73,3.51,3.51,0,0,1,.53-1.9,3.57,3.57,0,0,1,1.46-1.31,4.57,4.57,0,0,1,2.07-.47,14.11,14.11,0,0,0,2.08-.09,6.64,6.64,0,0,0,1.39-.3,13.83,13.83,0,0,0,1.35-.55Zm-7,1.25a2.86,2.86,0,0,0,0,3.44,2.43,2.43,0,0,0,3.29,0,2.55,2.55,0,0,0,.57-1.77c0-1.56-.75-2.34-2.26-2.34A2,2,0,0,0,330.11,181.13Z" fill="#333"/><path d="M52.93,399.28a5.33,5.33,0,0,1-1.32.26c-.48,0-1.06.06-1.76.06a2.79,2.79,0,0,1,1.86,2.66,3.34,3.34,0,0,1-1.08,2.58,4.75,4.75,0,0,1-4.28.8,1.22,1.22,0,0,0-.38.43,1.25,1.25,0,0,0-.14.55c0,.58.46.86,1.38.86h1.68a4.44,4.44,0,0,1,1.88.38,3.07,3.07,0,0,1,1.27,1,2.6,2.6,0,0,1,.45,1.5,2.66,2.66,0,0,1-1.26,2.37,6.64,6.64,0,0,1-3.68.83,8.15,8.15,0,0,1-2.69-.35,2.52,2.52,0,0,1-1.41-1.05,3.43,3.43,0,0,1-.42-1.8h1.66a1.82,1.82,0,0,0,.24,1,1.46,1.46,0,0,0,.86.56,6.22,6.22,0,0,0,1.76.19,4.92,4.92,0,0,0,2.37-.41,1.31,1.31,0,0,0,.71-1.23,1.26,1.26,0,0,0-.56-1.12,2.77,2.77,0,0,0-1.56-.38H46.85a3.13,3.13,0,0,1-2-.57,1.77,1.77,0,0,1-.69-1.43,1.88,1.88,0,0,1,.3-1,3.06,3.06,0,0,1,.86-.86,3,3,0,0,1-1.78-2.92,3.53,3.53,0,0,1,.53-1.9A3.71,3.71,0,0,1,45.5,399a4.57,4.57,0,0,1,2.07-.47,12.85,12.85,0,0,0,2.08-.09,6.64,6.64,0,0,0,1.39-.3,13.83,13.83,0,0,0,1.35-.55Zm-7,1.25A2.86,2.86,0,0,0,46,404a2.08,2.08,0,0,0,1.64.65,2.11,2.11,0,0,0,1.65-.63,2.55,2.55,0,0,0,.57-1.77c0-1.56-.75-2.34-2.26-2.34A2,2,0,0,0,46,400.53Z" fill="#333"/><path d="M55.32,409a2.35,2.35,0,0,1-.59-1.71v-12.7l1.84-.22v12.88a1.06,1.06,0,0,0,.15.64.58.58,0,0,0,.51.2,1.79,1.79,0,0,0,.68-.12l.48,1.28a3,3,0,0,1-1.46.36A2.13,2.13,0,0,1,55.32,409Z" fill="#333"/><path d="M68.41,404.7H61.69a4.13,4.13,0,0,0,.88,2.56,2.54,2.54,0,0,0,2,.82,4.15,4.15,0,0,0,1.4-.22,5.24,5.24,0,0,0,1.34-.7l.8,1.1a5.81,5.81,0,0,1-3.68,1.32A4.28,4.28,0,0,1,61,408.14a5.9,5.9,0,0,1-1.23-4,7.59,7.59,0,0,1,.53-2.91,4.66,4.66,0,0,1,1.52-2,4.31,4.31,0,0,1,5.55.66,5.89,5.89,0,0,1,1.12,3.82C68.45,404.07,68.44,404.38,68.41,404.7Zm-1.78-1.48a3.86,3.86,0,0,0-.62-2.38,2.19,2.19,0,0,0-1.86-.82c-1.5,0-2.32,1.11-2.46,3.32h4.94Z" fill="#333"/><path d="M73.33,394.1a1.22,1.22,0,0,1,.36.9,1.18,1.18,0,0,1-.36.89,1.26,1.26,0,0,1-.94.35,1.24,1.24,0,0,1-.92-.35,1.18,1.18,0,0,1-.36-.89,1.22,1.22,0,0,1,.36-.9,1.25,1.25,0,0,1,.92-.36A1.27,1.27,0,0,1,73.33,394.1Zm0,15.24H71.49V398.8h1.84Z" fill="#333"/><path d="M82.69,398.83a4.8,4.8,0,0,1,1.5.87l-.88,1.16a4.69,4.69,0,0,0-1.09-.59,3.59,3.59,0,0,0-1.17-.19,2.3,2.3,0,0,0-2,1,5.32,5.32,0,0,0-.71,3,5,5,0,0,0,.7,2.95,2.33,2.33,0,0,0,2,.95,3.17,3.17,0,0,0,1.14-.19,5.24,5.24,0,0,0,1.16-.61l.84,1.2A5,5,0,0,1,81,409.58a4.21,4.21,0,0,1-3.37-1.44,5.92,5.92,0,0,1-1.23-4,7.24,7.24,0,0,1,.56-2.94,4.64,4.64,0,0,1,1.59-2,4.33,4.33,0,0,1,2.45-.7A5.22,5.22,0,0,1,82.69,398.83Z" fill="#333"/><path d="M93.9,399.42a3.32,3.32,0,0,1,.81,2.36v7.56H92.87V402a2.3,2.3,0,0,0-.43-1.58,1.64,1.64,0,0,0-1.25-.46,2.39,2.39,0,0,0-1.46.48,5.44,5.44,0,0,0-1.2,1.36v7.5H86.69V394.58l1.84-.2v5.88a3.75,3.75,0,0,1,3.12-1.7A3,3,0,0,1,93.9,399.42Z" fill="#333"/><path d="M103.21,398.86a5.75,5.75,0,0,1,1.64.9l-.78,1.16a6.69,6.69,0,0,0-1.37-.68,4.42,4.42,0,0,0-1.37-.22,2.47,2.47,0,0,0-1.42.37,1.2,1.2,0,0,0-.52,1,1.18,1.18,0,0,0,.49,1,5.59,5.59,0,0,0,1.77.7,6.45,6.45,0,0,1,2.63,1.2,2.62,2.62,0,0,1,.87,2.08,2.68,2.68,0,0,1-1.21,2.38,5.1,5.1,0,0,1-3,.82,5.84,5.84,0,0,1-4-1.38l1-1.12a4.79,4.79,0,0,0,3,1,2.76,2.76,0,0,0,1.65-.43,1.33,1.33,0,0,0,.61-1.17,1.52,1.52,0,0,0-.22-.87,1.77,1.77,0,0,0-.76-.58,11.37,11.37,0,0,0-1.58-.53,5.29,5.29,0,0,1-2.43-1.18A2.63,2.63,0,0,1,98,400a3.28,3.28,0,0,1,1.36-1,5.06,5.06,0,0,1,2-.37A5.85,5.85,0,0,1,103.21,398.86Z" fill="#333"/><path d="M115.67,404.7H109a4.13,4.13,0,0,0,.88,2.56,2.54,2.54,0,0,0,2,.82,4.15,4.15,0,0,0,1.4-.22,5.24,5.24,0,0,0,1.34-.7l.8,1.1a5.81,5.81,0,0,1-3.68,1.32,4.28,4.28,0,0,1-3.43-1.44,5.9,5.9,0,0,1-1.23-4,7.59,7.59,0,0,1,.53-2.91,4.66,4.66,0,0,1,1.52-2,4.31,4.31,0,0,1,5.55.66,5.89,5.89,0,0,1,1.12,3.82C115.71,404.07,115.7,404.38,115.67,404.7Zm-1.78-1.48a3.86,3.86,0,0,0-.62-2.38,2.19,2.19,0,0,0-1.86-.82c-1.5,0-2.32,1.11-2.46,3.32h4.94Z" fill="#333"/><path d="M120.59,394.1a1.22,1.22,0,0,1,.36.9,1.18,1.18,0,0,1-.36.89,1.26,1.26,0,0,1-.94.35,1.24,1.24,0,0,1-.92-.35,1.18,1.18,0,0,1-.36-.89,1.22,1.22,0,0,1,.36-.9,1.25,1.25,0,0,1,.92-.36A1.27,1.27,0,0,1,120.59,394.1Zm0,15.24h-1.84V398.8h1.84Z" fill="#333"/><path d="M129.71,408.86a4,4,0,0,1-2.36.72,2.76,2.76,0,0,1-2.09-.77,3.05,3.05,0,0,1-.75-2.23v-6.36h-1.84V398.8h1.84v-2.38l1.84-.22v2.6h2.5l-.2,1.42h-2.3v6.28a1.94,1.94,0,0,0,.29,1.19,1.16,1.16,0,0,0,1,.37,2.63,2.63,0,0,0,1.4-.46Z" fill="#333"/><path d="M133.45,394.1a1.22,1.22,0,0,1,.36.9,1.18,1.18,0,0,1-.36.89,1.26,1.26,0,0,1-.94.35,1.24,1.24,0,0,1-.92-.35,1.18,1.18,0,0,1-.36-.89,1.22,1.22,0,0,1,.36-.9,1.25,1.25,0,0,1,.92-.36A1.27,1.27,0,0,1,133.45,394.1Zm0,15.24h-1.84V398.8h1.84Z" fill="#333"/><path d="M145.75,399.28a5.33,5.33,0,0,1-1.32.26c-.48,0-1.06.06-1.76.06a2.79,2.79,0,0,1,1.86,2.66,3.34,3.34,0,0,1-1.08,2.58,4.75,4.75,0,0,1-4.28.8,1.22,1.22,0,0,0-.38.43,1.25,1.25,0,0,0-.14.55c0,.58.46.86,1.38.86h1.68a4.44,4.44,0,0,1,1.88.38,3.07,3.07,0,0,1,1.27,1,2.6,2.6,0,0,1,.45,1.5,2.66,2.66,0,0,1-1.26,2.37,6.64,6.64,0,0,1-3.68.83,8.15,8.15,0,0,1-2.69-.35,2.52,2.52,0,0,1-1.41-1.05,3.43,3.43,0,0,1-.42-1.8h1.66a1.82,1.82,0,0,0,.24,1,1.46,1.46,0,0,0,.86.56,6.22,6.22,0,0,0,1.76.19,4.92,4.92,0,0,0,2.37-.41,1.31,1.31,0,0,0,.71-1.23,1.26,1.26,0,0,0-.56-1.12,2.77,2.77,0,0,0-1.56-.38h-1.66a3.13,3.13,0,0,1-2-.57A1.77,1.77,0,0,1,137,407a1.88,1.88,0,0,1,.3-1,3.06,3.06,0,0,1,.86-.86,3,3,0,0,1-1.78-2.92,3.53,3.53,0,0,1,.53-1.9,3.71,3.71,0,0,1,1.46-1.31,4.57,4.57,0,0,1,2.07-.47,12.85,12.85,0,0,0,2.08-.09,6.64,6.64,0,0,0,1.39-.3,13.83,13.83,0,0,0,1.35-.55Zm-7,1.25a2.86,2.86,0,0,0,0,3.44,2.08,2.08,0,0,0,1.64.65,2.11,2.11,0,0,0,1.65-.63,2.55,2.55,0,0,0,.57-1.77c0-1.56-.75-2.34-2.26-2.34A2,2,0,0,0,138.78,400.53Z" fill="#333"/><path d="M390.69,43.79h-1.58L389,42.15a4,4,0,0,1-1.38,1.43,3.76,3.76,0,0,1-1.9.45,2.8,2.8,0,0,1-2.16-.84,3.36,3.36,0,0,1-.78-2.38V33.25h1.84v7.36a2.35,2.35,0,0,0,.38,1.53,1.53,1.53,0,0,0,1.24.45,3.15,3.15,0,0,0,2.64-1.82V33.25h1.84Z" fill="#333"/><path d="M401.7,33.87a3.3,3.3,0,0,1,.81,2.36v7.56h-1.84v-7.3a2.34,2.34,0,0,0-.42-1.58,1.59,1.59,0,0,0-1.24-.46,2.39,2.39,0,0,0-1.48.48,4.89,4.89,0,0,0-1.2,1.38v7.48h-1.84V33.25h1.58l.16,1.56a4.07,4.07,0,0,1,1.39-1.32,3.57,3.57,0,0,1,1.83-.48A3,3,0,0,1,401.7,33.87Z" fill="#333"/><path d="M411.83,33.13l-.34,1.8a3.81,3.81,0,0,0-.92-.12,2,2,0,0,0-1.58.72,5.28,5.28,0,0,0-.94,2.24v6h-1.84V33.25h1.58l.18,2.14a4,4,0,0,1,1.14-1.78,2.54,2.54,0,0,1,1.68-.6A4.3,4.3,0,0,1,411.83,33.13Z" fill="#333"/><path d="M421.65,39.15h-6.72a4.1,4.1,0,0,0,.88,2.56,2.53,2.53,0,0,0,2,.82,4.24,4.24,0,0,0,1.4-.22,6,6,0,0,0,1.34-.7l.8,1.1A5.83,5.83,0,0,1,417.63,44a4.26,4.26,0,0,1-3.43-1.44,5.9,5.9,0,0,1-1.23-4,7.4,7.4,0,0,1,.53-2.91,4.52,4.52,0,0,1,1.52-2,3.84,3.84,0,0,1,2.33-.72,3.91,3.91,0,0,1,3.22,1.38,5.93,5.93,0,0,1,1.12,3.82C421.69,38.52,421.67,38.83,421.65,39.15Zm-1.78-1.48a3.93,3.93,0,0,0-.62-2.38,2.19,2.19,0,0,0-1.86-.82c-1.51,0-2.33,1.11-2.46,3.32h4.94Z" fill="#333"/><path d="M433.23,33.73a5.83,5.83,0,0,1-1.32.26c-.48,0-1.07.06-1.76.06A2.79,2.79,0,0,1,432,36.71a3.37,3.37,0,0,1-1.08,2.58,4.14,4.14,0,0,1-2.94,1,4.43,4.43,0,0,1-1.34-.2,1.13,1.13,0,0,0-.38.43,1.1,1.1,0,0,0-.14.55c0,.57.46.86,1.38.86h1.68a4.51,4.51,0,0,1,1.88.38,3.06,3.06,0,0,1,1.27,1,2.6,2.6,0,0,1,.45,1.5,2.66,2.66,0,0,1-1.26,2.37,6.75,6.75,0,0,1-3.68.83,8.39,8.39,0,0,1-2.69-.35,2.52,2.52,0,0,1-1.41-1.05,3.48,3.48,0,0,1-.42-1.8H425a1.84,1.84,0,0,0,.24,1,1.48,1.48,0,0,0,.86.56,6.17,6.17,0,0,0,1.76.19,5.1,5.1,0,0,0,2.37-.41,1.33,1.33,0,0,0,.71-1.23,1.27,1.27,0,0,0-.56-1.12,2.81,2.81,0,0,0-1.56-.38h-1.66a3.11,3.11,0,0,1-2-.57,1.78,1.78,0,0,1-.69-1.43,1.85,1.85,0,0,1,.3-1,2.82,2.82,0,0,1,.86-.86,3,3,0,0,1-1.78-2.92,3.42,3.42,0,0,1,.53-1.9,3.57,3.57,0,0,1,1.46-1.31,4.57,4.57,0,0,1,2.07-.47,15.73,15.73,0,0,0,2.08-.09,6.79,6.79,0,0,0,1.39-.3c.36-.13.81-.31,1.35-.55Zm-7,1.25a2.86,2.86,0,0,0,0,3.44,2.08,2.08,0,0,0,1.64.65,2.11,2.11,0,0,0,1.65-.63,2.55,2.55,0,0,0,.57-1.77A2.28,2.28,0,0,0,426.26,35Z" fill="#333"/><path d="M442.85,39.15h-6.72a4.1,4.1,0,0,0,.88,2.56,2.53,2.53,0,0,0,2,.82,4.24,4.24,0,0,0,1.4-.22,6,6,0,0,0,1.34-.7l.8,1.1A5.83,5.83,0,0,1,438.83,44a4.26,4.26,0,0,1-3.43-1.44,5.9,5.9,0,0,1-1.23-4,7.4,7.4,0,0,1,.53-2.91,4.52,4.52,0,0,1,1.52-2,3.84,3.84,0,0,1,2.33-.72,3.91,3.91,0,0,1,3.22,1.38,5.93,5.93,0,0,1,1.12,3.82C442.89,38.52,442.87,38.83,442.85,39.15Zm-1.78-1.48a3.93,3.93,0,0,0-.62-2.38,2.19,2.19,0,0,0-1.86-.82c-1.51,0-2.33,1.11-2.46,3.32h4.94Z" fill="#333"/><path d="M446.42,43.42a2.34,2.34,0,0,1-.59-1.71V29l1.84-.22V41.67a1.08,1.08,0,0,0,.15.64.61.61,0,0,0,.51.2,1.83,1.83,0,0,0,.68-.12l.48,1.28A3,3,0,0,1,448,44,2.12,2.12,0,0,1,446.42,43.42Z" fill="#333"/><path d="M464.45,33.88a3.43,3.43,0,0,1,.77,2.35v7.56h-1.84v-7.3c0-1.36-.49-2-1.48-2a2,2,0,0,0-1.31.45,6.21,6.21,0,0,0-1.16,1.41v7.48h-1.84v-7.3c0-1.36-.5-2-1.48-2a2,2,0,0,0-1.34.46,6.3,6.3,0,0,0-1.14,1.4v7.48h-1.84V33.25h1.58l.16,1.54a3.52,3.52,0,0,1,3-1.78,2.8,2.8,0,0,1,1.67.5,2.73,2.73,0,0,1,1,1.4,5,5,0,0,1,1.37-1.41,3.14,3.14,0,0,1,1.77-.49A2.67,2.67,0,0,1,464.45,33.88Z" fill="#333"/><path d="M476.25,42.28a1.28,1.28,0,0,0,.66.47L476.49,44a2.82,2.82,0,0,1-1.32-.46,2,2,0,0,1-.74-1.12A3.55,3.55,0,0,1,471.29,44a3.35,3.35,0,0,1-2.46-.88,3.07,3.07,0,0,1-.9-2.3,3,3,0,0,1,1.21-2.58,5.63,5.63,0,0,1,3.43-.9h1.62v-.78a2,2,0,0,0-.54-1.6,2.46,2.46,0,0,0-1.66-.48,9.35,9.35,0,0,0-2.84.56l-.46-1.34a10.58,10.58,0,0,1,3.64-.72,3.8,3.8,0,0,1,2.78.91,3.5,3.5,0,0,1,.92,2.59v4.82A1.63,1.63,0,0,0,476.25,42.28ZM471,28.76a1.14,1.14,0,0,1-.81,1.95,1.12,1.12,0,0,1-.83-.33,1.16,1.16,0,0,1,0-1.62,1.12,1.12,0,0,1,.83-.33A1.1,1.1,0,0,1,471,28.76ZM474.19,41V38.59h-1.38c-1.95,0-2.92.72-2.92,2.16a2,2,0,0,0,.46,1.42,1.79,1.79,0,0,0,1.36.48A2.77,2.77,0,0,0,474.19,41Zm1-12.25a1.16,1.16,0,0,1,0,1.62,1.13,1.13,0,0,1-.83.33,1.1,1.1,0,0,1-.81-.33,1.16,1.16,0,0,1,0-1.62,1.1,1.1,0,0,1,.81-.33A1.13,1.13,0,0,1,475.16,28.76Z" fill="#333"/><path d="M485.74,29.17a3.05,3.05,0,0,1,1.25,1,2.55,2.55,0,0,1,.43,1.45,2.18,2.18,0,0,1-.34,1.3,5.26,5.26,0,0,1-1,1,5.69,5.69,0,0,0-.69.66,1,1,0,0,0-.21.64,1.11,1.11,0,0,0,.33.8,8,8,0,0,0,1,.82,13.57,13.57,0,0,1,1.24.94,3.79,3.79,0,0,1,.81,1.1,3.72,3.72,0,0,1,.33,1.64,3.47,3.47,0,0,1-.48,1.83,3.41,3.41,0,0,1-1.31,1.22,3.72,3.72,0,0,1-1.76.43,4.21,4.21,0,0,1-2-.46l.54-1.28a3,3,0,0,0,1.32.26,1.79,1.79,0,0,0,1.35-.52,2.06,2.06,0,0,0,.5-1.5,2.2,2.2,0,0,0-.46-1.46,8.15,8.15,0,0,0-1.39-1.22,6.87,6.87,0,0,1-1.31-1.14,2,2,0,0,1-.46-1.32,1.69,1.69,0,0,1,.29-1,4.93,4.93,0,0,1,.86-.86,5,5,0,0,0,.8-.8,1.59,1.59,0,0,0,.26-.94,1.33,1.33,0,0,0-.53-1.13,2.2,2.2,0,0,0-1.33-.39c-1.44,0-2.16.93-2.16,2.78V43.79h-1.84V33a4.35,4.35,0,0,1,1.05-3.11,3.88,3.88,0,0,1,3-1.11A4.52,4.52,0,0,1,485.74,29.17Z" fill="#333"/><path d="M493.5,28.55a1.18,1.18,0,0,1,.36.9,1.15,1.15,0,0,1-.36.89,1.3,1.3,0,0,1-.94.35,1.28,1.28,0,0,1-.92-.35,1.18,1.18,0,0,1-.36-.89,1.22,1.22,0,0,1,.36-.9,1.25,1.25,0,0,1,.92-.36A1.27,1.27,0,0,1,493.5,28.55Zm0,15.24h-1.83V33.25h1.83Z" fill="#333"/><path d="M505.8,33.73a5.83,5.83,0,0,1-1.32.26c-.48,0-1.06.06-1.76.06a2.79,2.79,0,0,1,1.86,2.66,3.37,3.37,0,0,1-1.08,2.58,4.14,4.14,0,0,1-2.94,1,4.48,4.48,0,0,1-1.34-.2,1.21,1.21,0,0,0-.52,1c0,.57.46.86,1.38.86h1.68a4.44,4.44,0,0,1,1.88.38,3,3,0,0,1,1.27,1,2.6,2.6,0,0,1,.45,1.5,2.66,2.66,0,0,1-1.26,2.37,6.73,6.73,0,0,1-3.68.83,8.43,8.43,0,0,1-2.69-.35,2.52,2.52,0,0,1-1.41-1.05,3.48,3.48,0,0,1-.42-1.8h1.66a1.84,1.84,0,0,0,.24,1,1.51,1.51,0,0,0,.86.56,6.22,6.22,0,0,0,1.76.19,5,5,0,0,0,2.37-.41A1.31,1.31,0,0,0,503.5,45a1.25,1.25,0,0,0-.56-1.12,2.77,2.77,0,0,0-1.56-.38h-1.66a3.13,3.13,0,0,1-2-.57,1.78,1.78,0,0,1-.69-1.43,1.85,1.85,0,0,1,.3-1,2.93,2.93,0,0,1,.86-.86,3.38,3.38,0,0,1-1.35-1.19,3.34,3.34,0,0,1-.43-1.73,3.51,3.51,0,0,1,.53-1.9,3.63,3.63,0,0,1,1.46-1.31,4.57,4.57,0,0,1,2.07-.47,15.65,15.65,0,0,0,2.08-.09,6.64,6.64,0,0,0,1.39-.3c.37-.13.82-.31,1.35-.55Zm-7,1.25a2.49,2.49,0,0,0-.57,1.71,2.53,2.53,0,0,0,.58,1.73,2.43,2.43,0,0,0,3.29,0,2.55,2.55,0,0,0,.57-1.77c0-1.56-.75-2.34-2.26-2.34A2,2,0,0,0,498.83,35Z" fill="#333"/><path d="M376.75,400.27a5.92,5.92,0,0,1-1.33.26c-.47,0-1.06.06-1.75.06a2.79,2.79,0,0,1,1.86,2.66,3.37,3.37,0,0,1-1.08,2.58,4.17,4.17,0,0,1-2.95,1,4.41,4.41,0,0,1-1.33-.2,1.05,1.05,0,0,0-.38.43,1.11,1.11,0,0,0-.15.55c0,.57.46.86,1.39.86h1.68a4.43,4.43,0,0,1,1.87.38,3,3,0,0,1,1.27,1,2.53,2.53,0,0,1,.45,1.5,2.66,2.66,0,0,1-1.26,2.37,6.69,6.69,0,0,1-3.67.83,8.45,8.45,0,0,1-2.7-.35,2.52,2.52,0,0,1-1.41-1.05,3.58,3.58,0,0,1-.42-1.8h1.66a1.76,1.76,0,0,0,.25,1,1.48,1.48,0,0,0,.85.56,6.25,6.25,0,0,0,1.77.19,5.1,5.1,0,0,0,2.37-.41,1.33,1.33,0,0,0,.71-1.23,1.26,1.26,0,0,0-.57-1.12,2.75,2.75,0,0,0-1.55-.38h-1.66a3.14,3.14,0,0,1-2-.57,1.83,1.83,0,0,1-.38-2.43,2.89,2.89,0,0,1,.85-.86,3.38,3.38,0,0,1-1.35-1.19,3.33,3.33,0,0,1-.42-1.73,3.5,3.5,0,0,1,.52-1.9,3.66,3.66,0,0,1,1.47-1.31,4.52,4.52,0,0,1,2.06-.47,15.56,15.56,0,0,0,2.08-.09,6.5,6.5,0,0,0,1.39-.3c.37-.13.82-.31,1.36-.55Zm-7,1.25a2.44,2.44,0,0,0-.57,1.71,2.48,2.48,0,0,0,.58,1.73,2.07,2.07,0,0,0,1.63.65,2.13,2.13,0,0,0,1.66-.63,2.54,2.54,0,0,0,.56-1.77c0-1.56-.75-2.34-2.26-2.34A2,2,0,0,0,369.78,401.52Z" fill="#333"/><path d="M379.13,410a2.38,2.38,0,0,1-.59-1.71v-12.7l1.84-.22v12.88a1,1,0,0,0,.16.64.57.57,0,0,0,.5.2,1.79,1.79,0,0,0,.68-.12l.49,1.28a3,3,0,0,1-1.46.36A2.14,2.14,0,0,1,379.13,410Z" fill="#333"/><path d="M392.22,405.69H385.5a4.16,4.16,0,0,0,.88,2.56,2.54,2.54,0,0,0,2,.82,4.25,4.25,0,0,0,1.41-.22,5.72,5.72,0,0,0,1.33-.7l.8,1.1a5.81,5.81,0,0,1-3.67,1.32,4.25,4.25,0,0,1-3.43-1.44,5.91,5.91,0,0,1-1.24-4,7.4,7.4,0,0,1,.54-2.91,4.5,4.5,0,0,1,1.51-2,3.86,3.86,0,0,1,2.33-.72,3.92,3.92,0,0,1,3.23,1.38,5.93,5.93,0,0,1,1.11,3.82C392.26,405.06,392.25,405.37,392.22,405.69Zm-1.77-1.48a3.93,3.93,0,0,0-.62-2.38A2.2,2.2,0,0,0,388,401c-1.5,0-2.32,1.11-2.46,3.32h4.95Z" fill="#333"/><path d="M397.14,395.09a1.22,1.22,0,0,1,.36.9,1.18,1.18,0,0,1-.36.89,1.3,1.3,0,0,1-.94.35,1.28,1.28,0,0,1-.92-.35,1.18,1.18,0,0,1-.36-.89,1.22,1.22,0,0,1,.36-.9,1.25,1.25,0,0,1,.92-.36A1.27,1.27,0,0,1,397.14,395.09Zm0,15.24H395.3V399.79h1.84Z" fill="#333"/><path d="M406.5,399.82a4.8,4.8,0,0,1,1.5.87l-.87,1.16a4.71,4.71,0,0,0-1.09-.59,3.44,3.44,0,0,0-1.18-.19,2.27,2.27,0,0,0-2,1,5.24,5.24,0,0,0-.71,3,5.05,5.05,0,0,0,.69,2.95,2.36,2.36,0,0,0,2,.95,3.17,3.17,0,0,0,1.14-.19,6,6,0,0,0,1.17-.61l.83,1.2a5,5,0,0,1-3.21,1.16,4.18,4.18,0,0,1-3.37-1.44,5.89,5.89,0,0,1-1.24-4,7.07,7.07,0,0,1,.57-2.94,4.55,4.55,0,0,1,1.58-2,4.26,4.26,0,0,1,2.46-.7A5.2,5.2,0,0,1,406.5,399.82Z" fill="#333"/><path d="M417.71,400.41a3.3,3.3,0,0,1,.81,2.36v7.56h-1.84V403a2.28,2.28,0,0,0-.43-1.58A1.6,1.6,0,0,0,415,401a2.39,2.39,0,0,0-1.46.48,5.27,5.27,0,0,0-1.2,1.36v7.5H410.5V395.57l1.84-.2v5.88a3.75,3.75,0,0,1,3.12-1.7A3,3,0,0,1,417.71,400.41Z" fill="#333"/><path d="M427,399.85a5.75,5.75,0,0,1,1.64.9l-.78,1.16a6.22,6.22,0,0,0-1.37-.68,4.14,4.14,0,0,0-1.37-.22,2.39,2.39,0,0,0-1.42.37,1.25,1.25,0,0,0,0,2,5.85,5.85,0,0,0,1.77.7,6.2,6.2,0,0,1,2.63,1.2,2.62,2.62,0,0,1,.87,2.08,2.69,2.69,0,0,1-1.21,2.38,5.1,5.1,0,0,1-2.95.82,5.84,5.84,0,0,1-4-1.38l1-1.12a4.79,4.79,0,0,0,3,1,2.76,2.76,0,0,0,1.65-.43,1.36,1.36,0,0,0,.61-1.17,1.52,1.52,0,0,0-.22-.87A1.77,1.77,0,0,0,426,406a10.17,10.17,0,0,0-1.58-.53,5.39,5.39,0,0,1-2.43-1.18,2.63,2.63,0,0,1-.26-3.37,3.2,3.2,0,0,1,1.36-1,4.88,4.88,0,0,1,1.95-.37A5.85,5.85,0,0,1,427,399.85Z" fill="#333"/><path d="M437.12,399.82a4.8,4.8,0,0,1,1.5.87l-.88,1.16a4.34,4.34,0,0,0-1.09-.59,3.34,3.34,0,0,0-1.17-.19,2.3,2.3,0,0,0-2,1,5.32,5.32,0,0,0-.71,3,5,5,0,0,0,.7,2.95,2.36,2.36,0,0,0,2,.95,3.17,3.17,0,0,0,1.14-.19,5.7,5.7,0,0,0,1.16-.61l.84,1.2a5,5,0,0,1-3.22,1.16,4.21,4.21,0,0,1-3.37-1.44,5.94,5.94,0,0,1-1.23-4,7.24,7.24,0,0,1,.56-2.94,4.64,4.64,0,0,1,1.59-2,4.25,4.25,0,0,1,2.45-.7A5.22,5.22,0,0,1,437.12,399.82Z" fill="#333"/><path d="M448.33,400.41a3.26,3.26,0,0,1,.81,2.36v7.56H447.3V403a2.28,2.28,0,0,0-.43-1.58,1.6,1.6,0,0,0-1.25-.46,2.39,2.39,0,0,0-1.46.48,5.27,5.27,0,0,0-1.2,1.36v7.5h-1.84V395.57l1.84-.2v5.88a3.75,3.75,0,0,1,3.12-1.7A3,3,0,0,1,448.33,400.41Z" fill="#333"/><path d="M460.76,405.69H454a4.16,4.16,0,0,0,.88,2.56,2.54,2.54,0,0,0,2,.82,4.15,4.15,0,0,0,1.4-.22,5.58,5.58,0,0,0,1.34-.7l.8,1.1a5.81,5.81,0,0,1-3.68,1.32,4.28,4.28,0,0,1-3.43-1.44,5.9,5.9,0,0,1-1.23-4,7.59,7.59,0,0,1,.53-2.91,4.6,4.6,0,0,1,1.52-2,4.31,4.31,0,0,1,5.55.66,5.87,5.87,0,0,1,1.12,3.82C460.8,405.06,460.79,405.37,460.76,405.69ZM459,404.21a3.86,3.86,0,0,0-.62-2.38,2.17,2.17,0,0,0-1.86-.82c-1.5,0-2.32,1.11-2.46,3.32H459Z" fill="#333"/><path d="M471.05,400.41a3.3,3.3,0,0,1,.81,2.36v7.56H470V403a2.34,2.34,0,0,0-.42-1.58,1.58,1.58,0,0,0-1.24-.46,2.41,2.41,0,0,0-1.48.48,5.22,5.22,0,0,0-1.2,1.38v7.48h-1.84V399.79h1.58l.16,1.56A4.26,4.26,0,0,1,467,400a3.63,3.63,0,0,1,1.83-.48A3,3,0,0,1,471.05,400.41Z" fill="#333"/><path d="M477.4,410.33h-1.84V395.55l1.84-.22Zm2.18-5.88,4.32,5.88h-2.2l-4.18-5.76,3.88-4.78h2.06Z" fill="#333"/><path d="M486.29,410a2.38,2.38,0,0,1-.59-1.71v-12.7l1.84-.22v12.88a1.08,1.08,0,0,0,.15.64.61.61,0,0,0,.51.2,1.79,1.79,0,0,0,.68-.12l.48,1.28a3,3,0,0,1-1.46.36A2.13,2.13,0,0,1,486.29,410Z" fill="#333"/><path d="M493.5,395.09a1.22,1.22,0,0,1,.36.9,1.18,1.18,0,0,1-.36.89,1.3,1.3,0,0,1-.94.35,1.28,1.28,0,0,1-.92-.35,1.18,1.18,0,0,1-.36-.89,1.22,1.22,0,0,1,.36-.9,1.25,1.25,0,0,1,.92-.36A1.27,1.27,0,0,1,493.5,395.09Zm0,15.24h-1.84V399.79h1.84Z" fill="#333"/><path d="M505.8,400.27a5.83,5.83,0,0,1-1.32.26c-.48,0-1.06.06-1.76.06a2.79,2.79,0,0,1,1.86,2.66,3.37,3.37,0,0,1-1.08,2.58,4.14,4.14,0,0,1-2.94,1,4.48,4.48,0,0,1-1.34-.2,1.21,1.21,0,0,0-.52,1c0,.57.46.86,1.38.86h1.68a4.44,4.44,0,0,1,1.88.38,3,3,0,0,1,1.27,1,2.6,2.6,0,0,1,.45,1.5,2.66,2.66,0,0,1-1.26,2.37,6.73,6.73,0,0,1-3.68.83,8.43,8.43,0,0,1-2.69-.35,2.52,2.52,0,0,1-1.41-1.05,3.48,3.48,0,0,1-.42-1.8h1.66a1.84,1.84,0,0,0,.24,1,1.51,1.51,0,0,0,.86.56,6.22,6.22,0,0,0,1.76.19,5,5,0,0,0,2.37-.41,1.31,1.31,0,0,0,.71-1.23,1.25,1.25,0,0,0-.56-1.12,2.77,2.77,0,0,0-1.56-.38h-1.66a3.13,3.13,0,0,1-2-.57A1.78,1.78,0,0,1,497,408a1.85,1.85,0,0,1,.3-1,2.93,2.93,0,0,1,.86-.86,3.38,3.38,0,0,1-1.35-1.19,3.34,3.34,0,0,1-.43-1.73,3.51,3.51,0,0,1,.53-1.9,3.63,3.63,0,0,1,1.46-1.31,4.57,4.57,0,0,1,2.07-.47,15.65,15.65,0,0,0,2.08-.09,6.64,6.64,0,0,0,1.39-.3c.37-.13.82-.31,1.35-.55Zm-7,1.25a2.49,2.49,0,0,0-.57,1.71,2.53,2.53,0,0,0,.58,1.73,2.43,2.43,0,0,0,3.29,0,2.55,2.55,0,0,0,.57-1.77c0-1.56-.75-2.34-2.26-2.34A2,2,0,0,0,498.83,401.52Z" fill="#333"/><path d="M423.08,526.69v17h17A17,17,0,0,0,423.08,526.69Z" fill="none" stroke="#ff4848" stroke-miterlimit="10" stroke-width="2"/><polygon points="423.08 473.97 423.08 543.67 501.66 543.67 423.08 473.97" fill="none" stroke="#333" stroke-miterlimit="10" stroke-width="2"/><path d="M435.78,485.23,423.08,474v17A16.92,16.92,0,0,0,435.78,485.23Z" fill="none" stroke="#333" stroke-miterlimit="10" stroke-width="2"/><path d="M489,532.45a16.9,16.9,0,0,0-4.28,11.26h17Z" fill="none" stroke="#333" stroke-miterlimit="10" stroke-width="2"/><circle cx="430.1" cy="536.79" r="1.61" fill="#ff4848"/><polyline points="423.08 473.97 423.08 543.67 501.66 543.67" fill="none" stroke="#ff4848" stroke-linecap="round" stroke-miterlimit="10" stroke-width="2.25"/><path d="M398.76,531.26a5.4,5.4,0,0,1,1,3.43,9.79,9.79,0,0,1-.67,4,5.37,5.37,0,0,1-2,2.39,14.06,14.06,0,0,1-3.71,1.58l-.38-1.24a9.21,9.21,0,0,0,3.7-1.86,4.27,4.27,0,0,0,1.38-3.11,3.19,3.19,0,0,1-2.7,1.44,3.06,3.06,0,0,1-1.69-.48,3.29,3.29,0,0,1-1.2-1.35,4.51,4.51,0,0,1-.44-2,4.18,4.18,0,0,1,.52-2.13,3.66,3.66,0,0,1,1.39-1.37,4,4,0,0,1,1.94-.48A3.49,3.49,0,0,1,398.76,531.26Zm-.69,3.81a5.57,5.57,0,0,0-.49-2.87,1.84,1.84,0,0,0-1.68-.88,2,2,0,0,0-1.64.71,3,3,0,0,0-.58,2,2.87,2.87,0,0,0,.54,1.9,1.81,1.81,0,0,0,1.46.64A2.79,2.79,0,0,0,398.07,535.07Z" fill="#333"/><path d="M408.68,531.6a11,11,0,0,1,0,9.25,3.64,3.64,0,0,1-6,0,11.09,11.09,0,0,1,0-9.25,3.65,3.65,0,0,1,6,0Zm-4.75.88a12.8,12.8,0,0,0,0,7.49,1.87,1.87,0,0,0,3.47,0,12.55,12.55,0,0,0,0-7.48,1.87,1.87,0,0,0-3.47,0Z" fill="#333"/><path d="M413.18,535a2.6,2.6,0,0,1-1.08-1,3,3,0,0,1,0-3.07,2.66,2.66,0,0,1,1.08-1,3.18,3.18,0,0,1,2.9,0,2.65,2.65,0,0,1,1.09,1,3,3,0,0,1,0,3.08,2.6,2.6,0,0,1-1.09,1,3.25,3.25,0,0,1-1.45.33A3.16,3.16,0,0,1,413.18,535Zm2.57-1.22a2.1,2.1,0,0,0,0-2.6,1.49,1.49,0,0,0-1.12-.46,1.51,1.51,0,0,0-1.11.45,2.08,2.08,0,0,0,0,2.6,1.47,1.47,0,0,0,1.1.46A1.52,1.52,0,0,0,415.75,533.81Z" fill="#333"/><path d="M507.82,532.21h-1.57v3h-1.6v-3H499.5V531l3.62-8.06,1.39.57-3.26,7.36h3.42l.14-3.24h1.44v3.24h1.57Z" fill="#333"/><path d="M515.92,524.43h-4.7V528a4.23,4.23,0,0,1,1.93-.47,3.2,3.2,0,0,1,2.48,1,3.94,3.94,0,0,1,.94,2.8,4.31,4.31,0,0,1-.52,2.11,3.64,3.64,0,0,1-1.47,1.44,4.54,4.54,0,0,1-2.19.51,4.89,4.89,0,0,1-2-.38,5.11,5.11,0,0,1-1.6-1.15l1-1a3.4,3.4,0,0,0,1.15.87,3.24,3.24,0,0,0,1.38.28,2.31,2.31,0,0,0,1.81-.72,2.88,2.88,0,0,0,.66-2,2.65,2.65,0,0,0-.59-1.91,2.16,2.16,0,0,0-1.61-.59,3.33,3.33,0,0,0-.86.1,4.44,4.44,0,0,0-.85.31h-1.29v-6.06h6.51Z" fill="#333"/><path d="M519.87,528a2.76,2.76,0,0,1-1.09-1,3.1,3.1,0,0,1,0-3.08,2.76,2.76,0,0,1,1.09-1,3.26,3.26,0,0,1,2.9,0,2.78,2.78,0,0,1,1.09,1,2.91,2.91,0,0,1,.41,1.55,2.88,2.88,0,0,1-.41,1.54,2.8,2.8,0,0,1-1.09,1,3.25,3.25,0,0,1-1.45.33A3.13,3.13,0,0,1,519.87,528Zm2.57-1.23a1.75,1.75,0,0,0,.45-1.29,1.8,1.8,0,0,0-.45-1.31,1.61,1.61,0,0,0-2.24,0,2.08,2.08,0,0,0,0,2.6,1.51,1.51,0,0,0,1.11.46A1.53,1.53,0,0,0,522.44,526.75Z" fill="#333"/><path d="M422.69,465.3h-1.57v3h-1.6v-3h-5.15v-1.19L418,456l1.39.58L416.12,464h3.42l.14-3.24h1.44V464h1.57Z" fill="#333"/><path d="M430.79,457.52h-4.7v3.55a4.08,4.08,0,0,1,1.93-.47,3.24,3.24,0,0,1,2.48,1,4,4,0,0,1,.93,2.8,4.22,4.22,0,0,1-.52,2.12,3.55,3.55,0,0,1-1.46,1.44,4.54,4.54,0,0,1-2.19.51,4.86,4.86,0,0,1-2-.38,5.11,5.11,0,0,1-1.6-1.15l1-1a3.43,3.43,0,0,0,1.16.87,3.21,3.21,0,0,0,1.38.28,2.33,2.33,0,0,0,1.81-.72,2.9,2.9,0,0,0,.66-2,2.6,2.6,0,0,0-.6-1.91,2.14,2.14,0,0,0-1.6-.59,3.33,3.33,0,0,0-.86.1,4.21,4.21,0,0,0-.85.31h-1.3v-6.07H431Z" fill="#333"/><path d="M434.74,461.07a2.69,2.69,0,0,1-1.09-1,3.1,3.1,0,0,1,0-3.08,2.69,2.69,0,0,1,1.09-1,3.26,3.26,0,0,1,2.9,0,2.71,2.71,0,0,1,1.09,1,3.12,3.12,0,0,1,0,3.09,2.7,2.7,0,0,1-1.09,1,3.16,3.16,0,0,1-1.45.34A3.26,3.26,0,0,1,434.74,461.07Zm2.56-1.23a1.75,1.75,0,0,0,.45-1.29,1.8,1.8,0,0,0-.45-1.31,1.59,1.59,0,0,0-2.23,0,1.75,1.75,0,0,0-.45,1.3,1.73,1.73,0,0,0,.46,1.3,1.58,1.58,0,0,0,2.22,0Z" fill="#333"/><polygon points="289.75 543.64 306.3 449.84 324.57 543.64 289.75 543.64" fill="none" stroke="#333" stroke-miterlimit="10" stroke-width="2"/><path d="M306.15,466.24a16.89,16.89,0,0,0,3.28-.32l-3.13-16.08L303.44,466A17.28,17.28,0,0,0,306.15,466.24Z" fill="none" stroke="#333" stroke-miterlimit="10" stroke-width="2"/><path d="M292.06,530.44l-2.31,13.09h13.3A13.29,13.29,0,0,0,292.06,530.44Z" fill="none" stroke="#333" stroke-miterlimit="10" stroke-width="2"/><path d="M322,530.45a13.31,13.31,0,0,0-10.76,13.06h13.31Z" fill="none" stroke="#333" stroke-miterlimit="10" stroke-width="2"/><polyline points="289.75 543.64 306.3 449.84 324.57 543.64" fill="none" stroke="#ff4848" stroke-linecap="round" stroke-miterlimit="10" stroke-width="2.25"/><path d="M266.41,538.49a3,3,0,0,1-.53,1.77,3.51,3.51,0,0,1-1.48,1.22,5.46,5.46,0,0,1-4.32,0,3.33,3.33,0,0,1-1.45-1.2,3.17,3.17,0,0,1-.52-1.77,2.94,2.94,0,0,1,.61-1.87,4.53,4.53,0,0,1,1.77-1.26,3.43,3.43,0,0,1-1.41-1.18,2.84,2.84,0,0,1-.46-1.63,2.78,2.78,0,0,1,.51-1.67,3.16,3.16,0,0,1,1.35-1.06,4.51,4.51,0,0,1,1.79-.36,4.62,4.62,0,0,1,1.78.34,3.16,3.16,0,0,1,1.35,1,2.71,2.71,0,0,1,.53,1.67,2.43,2.43,0,0,1-.51,1.55,4.4,4.4,0,0,1-1.55,1.17C265.57,535.93,266.41,537,266.41,538.49ZM264,540a1.94,1.94,0,0,0,.65-1.53,2.12,2.12,0,0,0-.25-1.09,2.26,2.26,0,0,0-.81-.78,8.69,8.69,0,0,0-1.56-.67l-.45-.16a3.16,3.16,0,0,0-1.34,1.09,2.94,2.94,0,0,0-.43,1.62,1.91,1.91,0,0,0,.65,1.54,3.08,3.08,0,0,0,3.54,0Zm-3.24-8.82a1.72,1.72,0,0,0-.55,1.38,1.65,1.65,0,0,0,.53,1.32,5.06,5.06,0,0,0,1.7.82l.31.11a3.5,3.5,0,0,0,1.17-1,2.19,2.19,0,0,0,.36-1.28,1.8,1.8,0,0,0-.53-1.35,2.15,2.15,0,0,0-1.51-.5A2.12,2.12,0,0,0,260.79,531.22Z" fill="#333"/><path d="M275.26,531.08a11,11,0,0,1,0,9.24,3.63,3.63,0,0,1-6,0,11,11,0,0,1,0-9.24,3.65,3.65,0,0,1,6,0Zm-4.75.87a12.62,12.62,0,0,0,0,7.5,1.87,1.87,0,0,0,3.46,0,12.38,12.38,0,0,0,0-7.49,1.87,1.87,0,0,0-3.46,0Z" fill="#333"/><path d="M279.76,534.51a2.76,2.76,0,0,1-1.09-1,3.1,3.1,0,0,1,0-3.08,2.83,2.83,0,0,1,1.09-1,3.26,3.26,0,0,1,2.9,0,2.78,2.78,0,0,1,1.09,1,2.94,2.94,0,0,1,.41,1.55,2.88,2.88,0,0,1-.41,1.54,2.66,2.66,0,0,1-1.09,1,3.28,3.28,0,0,1-1.45.33A3.13,3.13,0,0,1,279.76,534.51Zm2.57-1.22a2.14,2.14,0,0,0,0-2.6,1.61,1.61,0,0,0-2.24,0,1.75,1.75,0,0,0-.45,1.29,1.8,1.8,0,0,0,.46,1.31,1.59,1.59,0,0,0,2.23,0Z" fill="#333"/><path d="M341,538.49a3.1,3.1,0,0,1-.53,1.77,3.54,3.54,0,0,1-1.49,1.22,5.46,5.46,0,0,1-4.32,0,3.38,3.38,0,0,1-1.45-1.2,3.16,3.16,0,0,1-.51-1.77,2.93,2.93,0,0,1,.6-1.87,4.53,4.53,0,0,1,1.77-1.26,3.56,3.56,0,0,1-1.41-1.18,2.91,2.91,0,0,1-.46-1.63,2.72,2.72,0,0,1,.52-1.67,3.19,3.19,0,0,1,1.34-1.06,4.52,4.52,0,0,1,1.8-.36,4.61,4.61,0,0,1,1.77.34,3.19,3.19,0,0,1,1.36,1,2.7,2.7,0,0,1,.52,1.67,2.48,2.48,0,0,1-.5,1.55,4.59,4.59,0,0,1-1.55,1.17C340.17,535.93,341,537,341,538.49ZM338.63,540a2,2,0,0,0,.66-1.53,2.22,2.22,0,0,0-.25-1.09,2.26,2.26,0,0,0-.81-.78,9.17,9.17,0,0,0-1.57-.67l-.45-.16a3.13,3.13,0,0,0-1.33,1.09,2.86,2.86,0,0,0-.43,1.62,1.9,1.9,0,0,0,.64,1.54,2.64,2.64,0,0,0,1.77.55A2.61,2.61,0,0,0,338.63,540Zm-3.24-8.82a1.76,1.76,0,0,0-.55,1.38,1.65,1.65,0,0,0,.53,1.32,5.16,5.16,0,0,0,1.7.82l.31.11a3.5,3.5,0,0,0,1.17-1,2.19,2.19,0,0,0,.36-1.28,1.8,1.8,0,0,0-.53-1.35,2.51,2.51,0,0,0-3,0Z" fill="#333"/><path d="M349.86,531.08a11,11,0,0,1,0,9.24,3.63,3.63,0,0,1-6,0,11.07,11.07,0,0,1,0-9.24,3.65,3.65,0,0,1,6,0Zm-4.75.87a12.62,12.62,0,0,0,0,7.5,1.88,1.88,0,0,0,3.47,0,12.59,12.59,0,0,0,0-7.49,1.88,1.88,0,0,0-3.47,0Z" fill="#333"/><path d="M354.36,534.51a2.76,2.76,0,0,1-1.09-1,3.1,3.1,0,0,1,0-3.08,2.83,2.83,0,0,1,1.09-1,3.26,3.26,0,0,1,2.9,0,2.78,2.78,0,0,1,1.09,1,2.85,2.85,0,0,1,.41,1.55,2.79,2.79,0,0,1-.41,1.54,2.66,2.66,0,0,1-1.09,1,3.25,3.25,0,0,1-1.45.33A3.16,3.16,0,0,1,354.36,534.51Zm2.57-1.22a2.1,2.1,0,0,0,0-2.6,1.49,1.49,0,0,0-1.12-.46,1.51,1.51,0,0,0-1.11.45,2.08,2.08,0,0,0,0,2.6,1.58,1.58,0,0,0,2.22,0Z" fill="#333"/><path d="M303.72,427.79A3.15,3.15,0,0,1,305,429a3.2,3.2,0,0,1,.45,1.68,4.73,4.73,0,0,1-.49,2.11,10.47,10.47,0,0,1-1.52,2.18c-.69.78-1.72,1.86-3.12,3.25h5.42l-.2,1.39h-7.11v-1.31q2.41-2.5,3.42-3.67a9.69,9.69,0,0,0,1.44-2,4.11,4.11,0,0,0,.44-1.86,1.85,1.85,0,0,0-2-2,2.68,2.68,0,0,0-1.3.3,4.29,4.29,0,0,0-1.15,1l-1.12-.86a4.87,4.87,0,0,1,1.64-1.37,4.44,4.44,0,0,1,2-.45A3.93,3.93,0,0,1,303.72,427.79Z" fill="#333"/><path d="M314.67,429a11,11,0,0,1,0,9.24,3.63,3.63,0,0,1-6,0,11,11,0,0,1,0-9.24,3.65,3.65,0,0,1,6,0Zm-4.75.87a12.62,12.62,0,0,0,0,7.5,1.81,1.81,0,0,0,1.73,1.16,1.83,1.83,0,0,0,1.73-1.16,12.38,12.38,0,0,0,0-7.49,1.87,1.87,0,0,0-3.46,0Z" fill="#333"/><path d="M319.17,432.38a2.76,2.76,0,0,1-1.09-1,3.1,3.1,0,0,1,0-3.08,2.76,2.76,0,0,1,1.09-1,3.26,3.26,0,0,1,2.9,0,2.78,2.78,0,0,1,1.09,1,2.94,2.94,0,0,1,.41,1.55,2.88,2.88,0,0,1-.41,1.54,2.66,2.66,0,0,1-1.09,1,3.28,3.28,0,0,1-1.45.33A3.13,3.13,0,0,1,319.17,432.38Zm2.56-1.22a2.1,2.1,0,0,0,0-2.6,1.48,1.48,0,0,0-1.11-.46,1.52,1.52,0,0,0-1.12.45,2.08,2.08,0,0,0,0,2.6,1.55,1.55,0,0,0,1.11.46A1.51,1.51,0,0,0,321.73,431.16Z" fill="#333"/><path d="M98.49,65.24c1.82,1.37,2.73,3.89,2.73,7.54s-.89,6.11-2.67,7.58a10.47,10.47,0,0,1-6.85,2.2H86.16V63.18h5.07A11.78,11.78,0,0,1,98.49,65.24Zm-8.22,1V79.53H92a4.68,4.68,0,0,0,3.69-1.47c.86-1,1.3-2.74,1.3-5.28a10.13,10.13,0,0,0-.66-4.08,3.77,3.77,0,0,0-1.75-2,6.24,6.24,0,0,0-2.66-.52Z" fill="#777103"/><path d="M113.43,67.52l-.67,3.84a5.16,5.16,0,0,0-1.32-.2,2.45,2.45,0,0,0-2,.92,7,7,0,0,0-1.15,2.83v7.65h-4V67.72h3.45l.36,2.88a5.35,5.35,0,0,1,1.56-2.44A3.5,3.5,0,0,1,112,67.3,5.59,5.59,0,0,1,113.43,67.52Z" fill="#777103"/><path d="M127.57,76.34H118.3a4.47,4.47,0,0,0,1.09,2.86,3.43,3.43,0,0,0,2.44.84,5.3,5.3,0,0,0,1.79-.31,8.44,8.44,0,0,0,1.82-1L127.09,81a8.71,8.71,0,0,1-5.62,2,6.83,6.83,0,0,1-5.38-2.1,8.21,8.21,0,0,1-1.88-5.68,10,10,0,0,1,.8-4.07,6.51,6.51,0,0,1,2.33-2.85,7,7,0,0,1,8.55,1,8,8,0,0,1,1.76,5.54C127.65,75,127.63,75.5,127.57,76.34Zm-3.86-2.66c0-2.46-.89-3.7-2.66-3.7a2.25,2.25,0,0,0-1.91.91,5.87,5.87,0,0,0-.84,3h5.41Z" fill="#777103"/><path d="M134.3,60.73a2.35,2.35,0,0,1,0,3.33,2.41,2.41,0,0,1-1.75.66,2.36,2.36,0,0,1-1.73-.66,2.4,2.4,0,0,1,0-3.33,2.36,2.36,0,0,1,1.73-.66A2.41,2.41,0,0,1,134.3,60.73Zm.27,21.83h-4V67.72h4Z" fill="#777103"/><path d="M151,76.34h-9.27a4.47,4.47,0,0,0,1.09,2.86,3.43,3.43,0,0,0,2.44.84,5.3,5.3,0,0,0,1.79-.31,8.44,8.44,0,0,0,1.82-1L150.47,81a8.71,8.71,0,0,1-5.62,2,6.83,6.83,0,0,1-5.38-2.1,8.21,8.21,0,0,1-1.88-5.68,10,10,0,0,1,.8-4.07,6.51,6.51,0,0,1,2.33-2.85,7,7,0,0,1,8.55,1A8,8,0,0,1,151,74.8C151,75,151,75.5,151,76.34Zm-3.86-2.66c0-2.46-.89-3.7-2.66-3.7a2.25,2.25,0,0,0-1.91.91,5.87,5.87,0,0,0-.84,3h5.41Z" fill="#777103"/><path d="M162.84,67.7a7.17,7.17,0,0,1,2.25,1.36l-1.74,2.35a5.41,5.41,0,0,0-1.41-.81,4.29,4.29,0,0,0-1.5-.25q-3.16,0-3.16,4.87a5.94,5.94,0,0,0,.81,3.53,2.75,2.75,0,0,0,2.32,1.06,4,4,0,0,0,1.43-.24,7.4,7.4,0,0,0,1.51-.79l1.74,2.49A7.52,7.52,0,0,1,160.22,83a7.29,7.29,0,0,1-3.8-1,6.22,6.22,0,0,1-2.47-2.7,9.1,9.1,0,0,1-.87-4.1,9.46,9.46,0,0,1,.87-4.16,6.57,6.57,0,0,1,2.47-2.81,6.85,6.85,0,0,1,3.74-1A7.81,7.81,0,0,1,162.84,67.7Z" fill="#777103"/><path d="M171.33,82.56h-4V61.81l4-.45Zm4.29-8.32,5.15,8.32h-4.51l-4.79-8.12,4.76-6.72h4.12Z" fill="#777103"/><path d="M192.84,69.06l-1.51,2.27a6.94,6.94,0,0,0-3.7-1.18,2.59,2.59,0,0,0-1.51.37,1.12,1.12,0,0,0-.53,1,1.24,1.24,0,0,0,.23.75,2.25,2.25,0,0,0,.9.59,19.53,19.53,0,0,0,2,.67,8.22,8.22,0,0,1,3.5,1.72,3.86,3.86,0,0,1,1.15,3,4,4,0,0,1-.85,2.57,5.32,5.32,0,0,1-2.31,1.67,8.87,8.87,0,0,1-3.25.57,9.82,9.82,0,0,1-3.42-.57,8,8,0,0,1-2.63-1.58l2-2.19a6.4,6.4,0,0,0,4,1.46,3.3,3.3,0,0,0,1.78-.43,1.37,1.37,0,0,0,.65-1.19,1.51,1.51,0,0,0-.25-.93,2.35,2.35,0,0,0-.92-.63,18.06,18.06,0,0,0-2.1-.68,7.2,7.2,0,0,1-3.32-1.75,3.94,3.94,0,0,1-1.08-2.82,3.77,3.77,0,0,1,.73-2.27,4.77,4.77,0,0,1,2.06-1.58,7.78,7.78,0,0,1,3.09-.57A8.33,8.33,0,0,1,192.84,69.06Z" fill="#777103"/><path d="M207.54,79.71a1.57,1.57,0,0,0,.84.61L207.54,83a5.47,5.47,0,0,1-2.14-.63,3.16,3.16,0,0,1-1.28-1.53A5,5,0,0,1,199.67,83a4.77,4.77,0,0,1-3.51-1.27,4.44,4.44,0,0,1-1.31-3.32,4.32,4.32,0,0,1,1.77-3.72,8.47,8.47,0,0,1,5.07-1.29h1.7v-.73a2.42,2.42,0,0,0-.61-1.9,3.09,3.09,0,0,0-2.05-.53,13,13,0,0,0-3.92.78l-.89-2.66a14.83,14.83,0,0,1,5.49-1.09,6.45,6.45,0,0,1,4.45,1.3,5,5,0,0,1,1.43,3.88v6A2.45,2.45,0,0,0,207.54,79.71Zm-4.15-1.21V75.67h-1.31c-2.15,0-3.22.8-3.22,2.41a2.17,2.17,0,0,0,.49,1.52,1.77,1.77,0,0,0,1.41.55A2.91,2.91,0,0,0,203.39,78.5Z" fill="#777103"/><path d="M220.42,67.52l-.67,3.84a5.29,5.29,0,0,0-1.32-.2,2.45,2.45,0,0,0-2,.92,7,7,0,0,0-1.15,2.83v7.65h-4V67.72h3.45l.36,2.88a5.33,5.33,0,0,1,1.55-2.44,3.5,3.5,0,0,1,2.31-.86A5.6,5.6,0,0,1,220.42,67.52Z" fill="#777103"/><path d="M231.73,81.86a6.4,6.4,0,0,1-1.83.85,7.22,7.22,0,0,1-2,.29,4.56,4.56,0,0,1-3.48-1.31,5.45,5.45,0,0,1-1.17-3.78V70.52H221v-2.8h2.22V64.47l4-.48v3.73h3.42l-.39,2.8h-3v7.3a2.49,2.49,0,0,0,.37,1.54,1.3,1.3,0,0,0,1.12.48,3.38,3.38,0,0,0,1.68-.53Z" fill="#777103"/><path d="M245.67,76.34H236.4a4.47,4.47,0,0,0,1.1,2.86,3.4,3.4,0,0,0,2.43.84,5.32,5.32,0,0,0,1.8-.31,8.39,8.39,0,0,0,1.81-1L245.2,81a8.73,8.73,0,0,1-5.63,2,6.85,6.85,0,0,1-5.38-2.1,8.21,8.21,0,0,1-1.87-5.68,10,10,0,0,1,.79-4.07,6.58,6.58,0,0,1,2.33-2.85,6.31,6.31,0,0,1,3.62-1,6.23,6.23,0,0,1,4.93,2,8,8,0,0,1,1.77,5.54C245.76,75,245.73,75.5,245.67,76.34Zm-3.86-2.66c0-2.46-.89-3.7-2.66-3.7a2.23,2.23,0,0,0-1.9.91,6,6,0,0,0-.85,3h5.41Z" fill="#777103"/><path d="M260,68.46a4.71,4.71,0,0,1,1.09,3.29V82.56h-4V72.42a2.69,2.69,0,0,0-.4-1.69,1.49,1.49,0,0,0-1.22-.49,2.51,2.51,0,0,0-1.53.51,5.76,5.76,0,0,0-1.33,1.56V82.56h-4V67.72h3.44l.31,1.87A5.64,5.64,0,0,1,257,67.27,3.93,3.93,0,0,1,260,68.46Z" fill="#777103"/></g></svg>