<?xml version="1.0" encoding="UTF-8" standalone="no"?>
<!-- Created with Inkscape (http://www.inkscape.org/) -->
<svg
   xmlns:svg="http://www.w3.org/2000/svg"
   xmlns="http://www.w3.org/2000/svg"
   version="1.0"
   width="1120"
   height="939"
   id="svg2"
   style="display:inline">
  <defs
     id="defs5">
    <marker
       refX="0"
       refY="0"
       orient="auto"
       id="Arrow2Send"
       style="overflow:visible">
      <path
         d="M 8.7185878,4.0337352 L -2.2072895,0.016013256 L 8.7185884,-4.0017078 C 6.97309,-1.6296469 6.9831476,1.6157441 8.7185878,4.0337352 z"
         transform="matrix(-0.3,0,0,-0.3,0.69,0)"
         id="path3206"
         style="font-size:12px;fill-rule:evenodd;stroke-width:0.625;stroke-linejoin:round" />
    </marker>
    <marker
       refX="0"
       refY="0"
       orient="auto"
       id="Arrow2Mend"
       style="overflow:visible">
      <path
         d="M 8.7185878,4.0337352 L -2.2072895,0.016013256 L 8.7185884,-4.0017078 C 6.97309,-1.6296469 6.9831476,1.6157441 8.7185878,4.0337352 z"
         transform="scale(-0.6,-0.6)"
         id="path3200"
         style="font-size:12px;fill-rule:evenodd;stroke-width:0.625;stroke-linejoin:round" />
    </marker>
    <marker
       refX="0"
       refY="0"
       orient="auto"
       id="Arrow2Lend"
       style="overflow:visible">
      <path
         d="M 8.7185878,4.0337352 L -2.2072895,0.016013256 L 8.7185884,-4.0017078 C 6.97309,-1.6296469 6.9831476,1.6157441 8.7185878,4.0337352 z"
         transform="matrix(-1.1,0,0,-1.1,-1.1,0)"
         id="path3194"
         style="font-size:12px;fill-rule:evenodd;stroke-width:0.625;stroke-linejoin:round" />
    </marker>
  </defs>
  <g
     id="layer2">
    <rect
       width="1125"
       height="940"
       x="0"
       y="-1"
       id="rect5326"
       style="fill:#ffffff;fill-opacity:1;stroke:none;stroke-width:1.77165353;stroke-miterlimit:4;stroke-dasharray:none" />
    <path
       d="M 958.59344,688.93215 C 935.82658,659.2306 912.77373,633.84057 873.08174,604.13902 C 798.41768,569.37308 800.39067,548.82863 763.85669,507.12994 C 752.59184,450.04774 709.17499,452.62446 681.21933,364.13137 C 679.82174,346.45903 677.15632,327.09625 681.21933,316.70471 C 673.11362,302.43443 661.00978,299.01624 639.54135,321.01622 C 614.43047,353.47769 614.04082,386.26292 623.73246,414.43238 C 633.78397,443.64784 660.62254,467.35563 644.57145,484.85378 C 552.8479,482.65785 529.50287,473.84464 494.38702,466.17055 C 438.38095,450.55435 411.73459,450.26325 386.59915,451.79884 C 370.32287,458.41994 355.96307,463.82764 367.91592,494.91399 C 394.68848,508.91593 434.67582,497.92549 461.33207,515.03439 C 487.71644,524.73497 519.81231,522.89965 530.31631,550.24509 C 518.98002,571.41822 510.49806,542.22138 452.70905,576.83276 C 396.93304,591.86604 385.56438,601.96517 380.85047,611.32488 C 372.46859,624.73848 379.77453,634.55915 392.34784,647.97275 C 405.7509,653.9346 415.77493,655.04183 425.40279,651.56568 C 441.21168,650.53334 457.02057,638.71685 472.82945,630.7267 C 483.32716,626.77972 499.23073,624.37727 523.13045,624.25943 C 517.2133,643.1427 514.36129,666.90282 548.99954,680.30911 C 548.18718,704.03287 547.36875,727.20575 573.43146,743.54467 C 626.03568,767.51623 674.58095,771.19307 721.46013,766.53941 C 752.26741,760.9642 774.81551,763.18557 783.25851,788.81557 L 817.03204,844.86526"
       id="path2388"
       style="fill:none;fill-rule:evenodd;stroke:#000000;stroke-width:6.19999981;stroke-linecap:butt;stroke-linejoin:miter;stroke-miterlimit:4;stroke-dasharray:none;stroke-opacity:1" />
    <path
       d="M 519.53752,627.85235 C 530.21475,617.00843 542.15954,609.96716 554.74823,604.85761 C 562.8922,603.08949 566.72466,606.94353 585.64742,608.45054 C 629.90584,604.61808 647.84084,600.78562 678.34498,596.95316 C 707.87111,608.59152 708.98467,637.0756 685.53084,651.56568 C 657.57278,668.83854 641.70469,663.41856 608.64216,666.65599 L 546.84378,681.74629"
       id="path3160"
       style="fill:none;fill-rule:evenodd;stroke:#000000;stroke-width:6.19999981;stroke-linecap:butt;stroke-linejoin:miter;stroke-miterlimit:4;stroke-dasharray:none;stroke-opacity:1" />
    <path
       d="M 573.43146,742.82608 C 594.31668,725.10096 629.7571,716.71746 677.6264,689.65073 C 703.82191,666.82568 697.5903,658.93527 687.6866,649.40992"
       id="path3162"
       style="fill:none;fill-rule:evenodd;stroke:#000000;stroke-width:6.19999981;stroke-linecap:butt;stroke-linejoin:miter;stroke-miterlimit:4;stroke-dasharray:none;stroke-opacity:1" />
    <path
       d="M 351.61688,648.35714 L 166.66234,733.72078"
       id="path3164"
       style="fill:none;fill-rule:evenodd;stroke:#000000;stroke-width:7;stroke-linecap:butt;stroke-linejoin:miter;marker-end:url(#Arrow2Lend);stroke-miterlimit:4;stroke-dasharray:none;stroke-opacity:1" />
    <path
       d="M 339.42208,465.43506 L 178.85714,416.65584"
       id="path3166"
       style="fill:none;fill-rule:evenodd;stroke:#000000;stroke-width:7;stroke-linecap:butt;stroke-linejoin:miter;marker-end:url(#Arrow2Lend);stroke-miterlimit:4;stroke-dasharray:none;stroke-opacity:1" />
    <path
       d="M 662.58442,260.15584 L 662.58442,97.558442"
       id="path3168"
       style="fill:none;fill-rule:evenodd;stroke:#000000;stroke-width:7;stroke-linecap:butt;stroke-linejoin:miter;marker-end:url(#Arrow2Lend);stroke-miterlimit:4;stroke-dasharray:none;stroke-opacity:1" />
    <text
       x="806.88959"
       y="180.8896"
       id="text3948"
       xml:space="preserve"
       style="font-size:12px;font-style:normal;font-variant:normal;font-weight:normal;font-stretch:normal;text-align:start;line-height:125%;writing-mode:lr-tb;text-anchor:start;fill:#000000;fill-opacity:1;stroke:none;stroke-width:1px;stroke-linecap:butt;stroke-linejoin:miter;stroke-opacity:1;font-family:Sans;-inkscape-font-specification:Sans"><tspan
         x="806.88959"
         y="180.8896"
         id="tspan3950" /></text>
    <path
       d="M 757.63971,235.22571 C 755.29593,237.2179 753.03422,238.62415 750.85455,239.44446 C 748.69828,240.26477 746.37797,240.67493 743.89362,240.67493 C 739.79204,240.67493 736.6397,239.67883 734.43658,237.68665 C 732.23346,235.67102 731.13189,233.10462 731.1319,229.98743 C 731.13189,228.15931 731.54205,226.49525 732.36237,224.99524 C 733.20611,223.47182 734.29595,222.25307 735.6319,221.33899 C 736.99126,220.42495 738.5147,219.73354 740.20221,219.26477 C 741.44438,218.93667 743.31938,218.62026 745.82721,218.31555 C 750.93656,217.7062 754.69828,216.97964 757.11237,216.13586 C 757.13577,215.2687 757.14749,214.71792 757.14752,214.48352 C 757.14749,211.90542 756.54984,210.08902 755.35455,209.0343 C 753.73734,207.60465 751.335,206.8898 748.14752,206.88977 C 745.17094,206.8898 742.96782,207.41715 741.53815,208.4718 C 740.13189,209.50308 739.08892,211.34292 738.40924,213.99133 L 732.22174,213.14758 C 732.78424,210.49917 733.71002,208.36636 734.99908,206.74915 C 736.28814,205.10856 738.15142,203.85465 740.58893,202.98743 C 743.02641,202.09684 745.85063,201.65153 749.06158,201.65149 C 752.24906,201.65153 754.8389,202.02653 756.83112,202.77649 C 758.82327,203.52653 760.28812,204.47574 761.22565,205.62415 C 762.16311,206.74918 762.81936,208.17886 763.1944,209.91321 C 763.4053,210.99136 763.51077,212.93667 763.5108,215.74915 L 763.5108,224.18665 C 763.51077,230.06947 763.63967,233.79603 763.89752,235.36633 C 764.17874,236.91321 764.7178,238.40149 765.51471,239.83118 L 758.90533,239.83118 C 758.24905,238.51868 757.82718,236.98352 757.63971,235.22571 M 757.11237,221.0929 C 754.81546,222.03041 751.37016,222.82729 746.77643,223.48352 C 744.17485,223.85854 742.33501,224.28041 741.2569,224.74915 C 740.17876,225.21791 739.34673,225.90932 738.7608,226.82336 C 738.17486,227.714 737.88189,228.71009 737.8819,229.81165 C 737.88189,231.49915 738.5147,232.9054 739.78033,234.0304 C 741.06938,235.1554 742.94438,235.7179 745.40533,235.7179 C 747.84282,235.7179 750.01078,235.19056 751.90924,234.13586 C 753.80765,233.05775 755.20218,231.5929 756.09283,229.74133 C 756.77249,228.31166 757.11234,226.20228 757.11237,223.41321 L 757.11237,221.0929"
       id="text3960"
       style="font-size:72px;font-style:normal;font-variant:normal;font-weight:normal;font-stretch:normal;text-align:start;line-height:125%;writing-mode:lr-tb;text-anchor:start;fill:#000000;fill-opacity:1;stroke:none;stroke-width:1px;stroke-linecap:butt;stroke-linejoin:miter;stroke-opacity:1;font-family:Sans;-inkscape-font-specification:Sans" />
    <path
       d="M 310.7001,390.23376 L 304.82901,390.23376 L 304.82901,338.6947 L 311.15714,338.6947 L 311.15714,357.08142 C 313.829,353.72989 317.23915,352.05412 321.3876,352.05408 C 323.68446,352.05412 325.85242,352.52286 327.89151,353.46033 C 329.95398,354.37443 331.64148,355.67521 332.95401,357.36267 C 334.28991,359.02676 335.33288,361.04239 336.08292,363.40955 C 336.83288,365.77676 337.20788,368.30801 337.20792,371.0033 C 337.20788,377.40175 335.62585,382.34705 332.46182,385.83923 C 329.29773,389.33142 325.50086,391.07751 321.0712,391.07751 C 316.66493,391.07751 313.2079,389.23767 310.7001,385.55798 L 310.7001,390.23376 M 310.62979,371.28455 C 310.62978,375.76112 311.23916,378.99549 312.45792,380.98767 C 314.45009,384.24549 317.1454,385.87439 320.54385,385.87439 C 323.30946,385.87439 325.70008,384.67908 327.71573,382.28845 C 329.73132,379.8744 330.73914,376.28847 330.73917,371.53064 C 330.73914,366.65566 329.76648,363.05801 327.8212,360.73767 C 325.8993,358.41739 323.56727,357.25724 320.8251,357.2572 C 318.05946,357.25724 315.66884,358.46427 313.65323,360.8783 C 311.63759,363.26895 310.62978,366.73769 310.62979,371.28455"
       id="text3964"
       style="font-size:72px;font-style:normal;font-variant:normal;font-weight:normal;font-stretch:normal;text-align:start;line-height:125%;writing-mode:lr-tb;text-anchor:start;fill:#000000;fill-opacity:1;stroke:none;stroke-width:1px;stroke-linecap:butt;stroke-linejoin:miter;stroke-opacity:1;font-family:Sans;-inkscape-font-specification:Sans" />
    <path
       d="M 250.21979,824.6413 C 247.87601,826.63349 245.61429,828.03974 243.43463,828.86005 C 241.27836,829.68036 238.95805,830.09051 236.47369,830.09052 C 232.37212,830.09051 229.21978,829.09442 227.01666,827.10223 C 224.81353,825.08661 223.71197,822.52021 223.71198,819.40302 C 223.71197,817.5749 224.12213,815.91084 224.94244,814.41083 C 225.78619,812.88741 226.87603,811.66866 228.21198,810.75458 C 229.57134,809.84053 231.09478,809.14913 232.78229,808.68036 C 234.02446,808.35225 235.89946,808.03585 238.40729,807.73114 C 243.51664,807.12179 247.27836,806.39523 249.69244,805.55145 C 249.71585,804.68429 249.72757,804.13351 249.7276,803.89911 C 249.72757,801.32101 249.12992,799.50461 247.93463,798.44989 C 246.31742,797.02023 243.91508,796.30539 240.7276,796.30536 C 237.75102,796.30539 235.5479,796.83274 234.11823,797.88739 C 232.71196,798.91867 231.669,800.75851 230.98932,803.40692 L 224.80182,802.56317 C 225.36431,799.91476 226.29009,797.78195 227.57916,796.16473 C 228.86822,794.52414 230.7315,793.27024 233.16901,792.40302 C 235.60649,791.51243 238.43071,791.06712 241.64166,791.06708 C 244.82914,791.06712 247.41898,791.44212 249.41119,792.19208 C 251.40335,792.94211 252.86819,793.89133 253.80573,795.03973 C 254.74319,796.16477 255.39944,797.59445 255.77448,799.3288 C 255.98538,800.40695 256.09085,802.35226 256.09088,805.16473 L 256.09088,813.60223 C 256.09085,819.48506 256.21975,823.21161 256.4776,824.78192 C 256.75881,826.3288 257.29788,827.81708 258.09479,829.24677 L 251.48541,829.24677 C 250.82913,827.93427 250.40726,826.39911 250.21979,824.6413 M 249.69244,810.50848 C 247.39554,811.446 243.95023,812.24288 239.35651,812.89911 C 236.75493,813.27412 234.91509,813.696 233.83698,814.16473 C 232.75884,814.6335 231.92681,815.3249 231.34088,816.23895 C 230.75493,817.12959 230.46197,818.12568 230.46198,819.22723 C 230.46197,820.91474 231.09478,822.32099 232.36041,823.44598 C 233.64946,824.57099 235.52446,825.13349 237.98541,825.13348 C 240.42289,825.13349 242.59086,824.60614 244.48932,823.55145 C 246.38773,822.47333 247.78226,821.00849 248.67291,819.15692 C 249.35257,817.72725 249.69242,815.61787 249.69244,812.8288 L 249.69244,810.50848 M 281.68463,829.24677 L 295.32526,809.84052 L 282.70416,791.91083 L 290.61432,791.91083 L 296.34479,800.66473 C 297.4229,802.32882 298.29008,803.72335 298.94635,804.84833 C 299.97758,803.30148 300.9268,801.93039 301.79401,800.73505 L 308.08698,791.91083 L 315.64557,791.91083 L 302.74323,809.48895 L 316.62994,829.24677 L 308.86041,829.24677 L 301.19635,817.6452 L 299.15729,814.5163 L 289.34869,829.24677 L 281.68463,829.24677 M 347.14557,829.24677 L 341.27448,829.24677 L 341.27448,777.7077 L 347.6026,777.7077 L 347.6026,796.09442 C 350.27446,792.7429 353.68461,791.06712 357.83307,791.06708 C 360.12992,791.06712 362.29789,791.53587 364.33698,792.47333 C 366.39945,793.38743 368.08694,794.68821 369.39948,796.37567 C 370.73538,798.03977 371.77835,800.05539 372.52838,802.42255 C 373.27834,804.78976 373.65334,807.32101 373.65338,810.0163 C 373.65334,816.41475 372.07131,821.36005 368.90729,824.85223 C 365.7432,828.34442 361.94632,830.09051 357.51666,830.09052 C 353.1104,830.09051 349.65337,828.25067 347.14557,824.57098 L 347.14557,829.24677 M 347.07526,810.29755 C 347.07525,814.77412 347.68462,818.0085 348.90338,820.00067 C 350.89555,823.25849 353.59086,824.88739 356.98932,824.88739 C 359.75492,824.88739 362.14554,823.69208 364.16119,821.30145 C 366.17679,818.8874 367.1846,815.30147 367.18463,810.54364 C 367.1846,805.66866 366.21195,802.07101 364.26666,799.75067 C 362.34476,797.43039 360.01273,796.27024 357.27057,796.2702 C 354.50493,796.27024 352.1143,797.47727 350.09869,799.8913 C 348.08306,802.28195 347.07525,805.75069 347.07526,810.29755"
       id="text3968"
       style="font-size:72px;font-style:normal;font-variant:normal;font-weight:normal;font-stretch:normal;text-align:start;line-height:125%;writing-mode:lr-tb;text-anchor:start;fill:#000000;fill-opacity:1;stroke:none;stroke-width:1px;stroke-linecap:butt;stroke-linejoin:miter;stroke-opacity:1;font-family:Sans;-inkscape-font-specification:Sans" />
    <path
       d="M 304.26113,318.14188 L 337.72315,318.14188"
       id="path3972"
       style="fill:none;fill-rule:evenodd;stroke:#000000;stroke-width:3;stroke-linecap:butt;stroke-linejoin:miter;marker-end:url(#Arrow2Mend);stroke-miterlimit:4;stroke-dasharray:none;stroke-opacity:1" />
    <path
       d="M 731.47419,176.59489 L 764.93621,176.59489"
       id="path5026"
       style="fill:none;fill-rule:evenodd;stroke:#000000;stroke-width:3;stroke-linecap:butt;stroke-linejoin:miter;marker-end:url(#Arrow2Mend);stroke-miterlimit:4;stroke-dasharray:none;stroke-opacity:1" />
    <path
       d="M 339.96683,763.67948 L 373.42885,763.67948"
       id="path5028"
       style="fill:none;fill-rule:evenodd;stroke:#000000;stroke-width:3;stroke-linecap:butt;stroke-linejoin:miter;marker-end:url(#Arrow2Mend);stroke-miterlimit:4;stroke-dasharray:none;stroke-opacity:1" />
    <path
       d="M 224.15412,763.67948 L 257.61614,763.67948"
       id="path5030"
       style="fill:none;fill-rule:evenodd;stroke:#000000;stroke-width:3;stroke-linecap:butt;stroke-linejoin:miter;marker-end:url(#Arrow2Mend);stroke-miterlimit:4;stroke-dasharray:none;stroke-opacity:1" />
  </g>
</svg>
